<svg xmlns="http://www.w3.org/2000/svg" xmlns:xlink="http://www.w3.org/1999/xlink" width="500" zoomAndPan="magnify" viewBox="0 0 375 374.999991" height="500" preserveAspectRatio="xMidYMid meet" version="1.0"><defs><clipPath id="id1"><path d="M 188 32 L 241 32 L 241 130 L 188 130 Z M 188 32 " clip-rule="nonzero"/></clipPath><clipPath id="id2"><path d="M 189.464844 129.96875 L 187.496094 25.738281 L 239.238281 24.761719 L 241.207031 128.992188 Z M 189.464844 129.96875 " clip-rule="nonzero"/></clipPath><clipPath id="id3"><path d="M 267.246094 65.480469 L 341.496094 65.480469 L 341.496094 166.730469 L 267.246094 166.730469 Z M 267.246094 65.480469 " clip-rule="nonzero"/></clipPath><clipPath id="id4"><path d="M 105 155 L 150 155 L 150 200 L 105 200 Z M 105 155 " clip-rule="nonzero"/></clipPath><clipPath id="id5"><path d="M 99.851562 186.703125 L 136.445312 150.109375 L 154.476562 168.140625 L 117.882812 204.734375 Z M 99.851562 186.703125 " clip-rule="nonzero"/></clipPath><clipPath id="id6"><path d="M 133 143 L 185 143 L 185 180 L 133 180 Z M 133 143 " clip-rule="nonzero"/></clipPath><clipPath id="id7"><path d="M 137.144531 141.414062 L 187.703125 152.460938 L 181.300781 181.769531 L 130.742188 170.722656 Z M 137.144531 141.414062 " clip-rule="nonzero"/></clipPath><clipPath id="id8"><path d="M 156 151 L 210 151 L 210 204 L 156 204 Z M 156 151 " clip-rule="nonzero"/></clipPath><clipPath id="id9"><path d="M 202.378906 147.777344 L 211.914062 198.640625 L 163.996094 207.625 L 154.464844 156.757812 Z M 202.378906 147.777344 " clip-rule="nonzero"/></clipPath><clipPath id="id10"><path d="M 160 186 L 210 186 L 210 234 L 160 234 Z M 160 186 " clip-rule="nonzero"/></clipPath><clipPath id="id11"><path d="M 203.132812 182.636719 L 211.835938 229.078125 L 167.609375 237.367188 L 158.902344 190.925781 Z M 203.132812 182.636719 " clip-rule="nonzero"/></clipPath><clipPath id="id12"><path d="M 146 212 L 205 212 L 205 270 L 146 270 Z M 146 212 " clip-rule="nonzero"/></clipPath><clipPath id="id13"><path d="M 176.617188 204.929688 L 211.777344 243.914062 L 175.019531 277.066406 L 139.859375 238.082031 Z M 176.617188 204.929688 " clip-rule="nonzero"/></clipPath><clipPath id="id14"><path d="M 118 231 L 172 231 L 172 283 L 118 283 Z M 118 231 " clip-rule="nonzero"/></clipPath><clipPath id="id15"><path d="M 156.894531 225.949219 L 175.667969 270.125 L 133.558594 288.015625 L 114.789062 243.839844 Z M 156.894531 225.949219 " clip-rule="nonzero"/></clipPath><clipPath id="id16"><path d="M 149 231 L 202 231 L 202 283 L 149 283 Z M 149 231 " clip-rule="nonzero"/></clipPath><clipPath id="id17"><path d="M 187.332031 225.949219 L 206.105469 270.125 L 163.996094 288.015625 L 145.226562 243.839844 Z M 187.332031 225.949219 " clip-rule="nonzero"/></clipPath><clipPath id="id18"><path d="M 134 254 L 188 254 L 188 305 L 134 305 Z M 134 254 " clip-rule="nonzero"/></clipPath><clipPath id="id19"><path d="M 172.6875 248.542969 L 191.457031 292.71875 L 149.351562 310.609375 L 130.582031 266.433594 Z M 172.6875 248.542969 " clip-rule="nonzero"/></clipPath><clipPath id="id20"><path d="M 100 262 L 154 262 L 154 314 L 100 314 Z M 100 262 " clip-rule="nonzero"/></clipPath><clipPath id="id21"><path d="M 138.734375 257.089844 L 157.507812 301.269531 L 115.398438 319.160156 L 96.628906 274.980469 Z M 138.734375 257.089844 " clip-rule="nonzero"/></clipPath><clipPath id="id22"><path d="M 88 243 L 142 243 L 142 294 L 88 294 Z M 88 243 " clip-rule="nonzero"/></clipPath><clipPath id="id23"><path d="M 126.457031 237.503906 L 145.230469 281.683594 L 103.121094 299.574219 L 84.351562 255.394531 Z M 126.457031 237.503906 " clip-rule="nonzero"/></clipPath><clipPath id="id24"><path d="M 64 247 L 114 247 L 114 297 L 64 297 Z M 64 247 " clip-rule="nonzero"/></clipPath><clipPath id="id25"><path d="M 107.207031 244.324219 L 116.082031 291.496094 L 71.121094 299.957031 L 62.246094 252.785156 Z M 107.207031 244.324219 " clip-rule="nonzero"/></clipPath><clipPath id="id26"><path d="M 70 272 L 121 272 L 121 321 L 70 321 Z M 70 272 " clip-rule="nonzero"/></clipPath><clipPath id="id27"><path d="M 113.597656 268.648438 L 122.46875 315.820312 L 77.507812 324.277344 L 68.632812 277.105469 Z M 113.597656 268.648438 " clip-rule="nonzero"/></clipPath><clipPath id="id28"><path d="M 23.207031 227.273438 L 28.457031 227.273438 L 28.457031 334.523438 L 23.207031 334.523438 Z M 23.207031 227.273438 " clip-rule="nonzero"/></clipPath><clipPath id="id29"><path d="M 90 193 L 204 193 L 204 284 L 90 284 Z M 90 193 " clip-rule="nonzero"/></clipPath><clipPath id="id30"><path d="M 84.472656 239.21875 L 182.628906 187.386719 L 209.246094 237.789062 L 111.089844 289.621094 Z M 84.472656 239.21875 " clip-rule="nonzero"/></clipPath><clipPath id="id31"><path d="M 24 215 L 140 215 L 140 282 L 24 282 Z M 24 215 " clip-rule="nonzero"/></clipPath><clipPath id="id32"><path d="M 24.273438 225.207031 L 134.824219 215.238281 L 139.945312 272.007812 L 29.394531 281.976562 Z M 24.273438 225.207031 " clip-rule="nonzero"/></clipPath><clipPath id="id33"><path d="M 24.273438 268.382812 L 135.273438 268.382812 L 135.273438 290.882812 L 24.273438 290.882812 Z M 24.273438 268.382812 " clip-rule="nonzero"/></clipPath><clipPath id="id34"><path d="M 25.964844 281.816406 L 136.964844 281.816406 L 136.964844 304.316406 L 25.964844 304.316406 Z M 25.964844 281.816406 " clip-rule="nonzero"/></clipPath><clipPath id="id35"><path d="M 48.207031 296.496094 L 79.707031 296.496094 L 79.707031 324.246094 L 48.207031 324.246094 Z M 48.207031 296.496094 " clip-rule="nonzero"/></clipPath><clipPath id="id36"><path d="M 24.273438 293.113281 L 55.773438 293.113281 L 55.773438 320.863281 L 24.273438 320.863281 Z M 24.273438 293.113281 " clip-rule="nonzero"/></clipPath><clipPath id="id37"><path d="M 24.273438 300.214844 L 55.773438 300.214844 L 55.773438 327.964844 L 24.273438 327.964844 Z M 24.273438 300.214844 " clip-rule="nonzero"/></clipPath><clipPath id="id38"><path d="M 23.207031 23.617188 L 351.707031 23.617188 L 351.707031 351.367188 L 23.207031 351.367188 Z M 23.207031 23.617188 " clip-rule="nonzero"/></clipPath><clipPath id="id39"><path d="M 23.207031 40 L 101 40 L 101 73 L 23.207031 73 Z M 23.207031 40 " clip-rule="nonzero"/></clipPath></defs><g clip-path="url(#id1)"><g clip-path="url(#id2)"><path fill="#31899d" d="M 188.335938 70.222656 L 188.972656 103.914062 C 189.246094 118.304688 201.046875 129.75 215.335938 129.480469 C 229.625 129.210938 240.988281 117.324219 240.714844 102.933594 L 240.078125 69.246094 C 239.855469 57.445312 234.988281 46.21875 226.546875 38.035156 C 219.269531 30.972656 207.6875 31.191406 200.679688 38.523438 C 192.554688 47.023438 188.113281 58.425781 188.335938 70.222656 " fill-opacity="1" fill-rule="nonzero"/></g></g><g clip-path="url(#id3)"><path fill="#31899d" d="M 267.25 90.792969 L 267.25 166.730469 L 341.496094 166.730469 L 341.496094 90.792969 L 304.371094 65.480469 L 267.25 90.792969 " fill-opacity="1" fill-rule="nonzero"/></g><g clip-path="url(#id4)"><g clip-path="url(#id5)"><path fill="#31899d" d="M 127.296875 159.257812 C 132.351562 154.207031 140.484375 154.144531 145.460938 159.125 C 150.441406 164.105469 150.382812 172.238281 145.328125 177.289062 L 127.03125 195.585938 C 121.980469 200.636719 113.847656 200.699219 108.867188 195.71875 C 103.890625 190.738281 103.949219 182.605469 109 177.554688 L 127.296875 159.257812 " fill-opacity="1" fill-rule="nonzero"/></g></g><g clip-path="url(#id6)"><g clip-path="url(#id7)"><path fill="#31899d" d="M 175.058594 149.699219 C 182.039062 151.222656 186.261719 159.019531 184.496094 167.113281 C 182.726562 175.207031 175.636719 180.53125 168.65625 179.007812 L 143.386719 173.484375 C 136.40625 171.960938 132.183594 164.164062 133.949219 156.070312 C 135.71875 147.976562 142.808594 142.652344 149.789062 144.175781 L 175.058594 149.699219 " fill-opacity="1" fill-rule="nonzero"/></g></g><g clip-path="url(#id8)"><g clip-path="url(#id9)"><path fill="#31899d" d="M 209.53125 185.925781 C 210.847656 192.949219 201.1875 200.652344 187.957031 203.132812 C 174.722656 205.613281 162.929688 201.929688 161.613281 194.90625 L 156.847656 169.476562 C 155.53125 162.453125 165.191406 154.75 178.421875 152.269531 C 191.652344 149.789062 203.445312 153.46875 204.761719 160.492188 L 209.53125 185.925781 " fill-opacity="1" fill-rule="nonzero"/></g></g><g clip-path="url(#id10)"><g clip-path="url(#id11)"><path fill="#31899d" d="M 209.65625 217.46875 C 210.859375 223.878906 201.933594 230.933594 189.722656 233.222656 C 177.511719 235.511719 166.636719 232.167969 165.433594 225.757812 L 161.082031 202.535156 C 159.878906 196.125 168.804688 189.070312 181.015625 186.78125 C 193.230469 184.492188 204.101562 187.835938 205.304688 194.246094 L 209.65625 217.46875 " fill-opacity="1" fill-rule="nonzero"/></g></g><g clip-path="url(#id12)"><g clip-path="url(#id13)"><path fill="#31899d" d="M 202.988281 234.167969 C 207.84375 239.550781 203.550781 251.335938 193.398438 260.492188 C 183.25 269.644531 171.085938 272.703125 166.230469 267.320312 L 148.648438 247.828125 C 143.792969 242.445312 148.085938 230.660156 158.238281 221.503906 C 168.386719 212.351562 180.550781 209.292969 185.40625 214.675781 L 202.988281 234.167969 " fill-opacity="1" fill-rule="nonzero"/></g></g><g clip-path="url(#id14)"><g clip-path="url(#id15)"><path fill="#31899d" d="M 170.96875 259.082031 C 173.5625 265.183594 166.238281 274.128906 154.613281 279.070312 C 142.988281 284.011719 131.460938 283.070312 128.871094 276.96875 L 119.484375 254.882812 C 116.894531 248.78125 124.214844 239.832031 135.84375 234.894531 C 147.46875 229.953125 158.992188 230.894531 161.585938 236.992188 L 170.96875 259.082031 " fill-opacity="1" fill-rule="nonzero"/></g></g><g clip-path="url(#id16)"><g clip-path="url(#id17)"><path fill="#31899d" d="M 201.40625 259.082031 C 204 265.183594 196.675781 274.128906 185.050781 279.070312 C 173.425781 284.011719 161.898438 283.070312 159.308594 276.96875 L 149.921875 254.882812 C 147.332031 248.78125 154.652344 239.832031 166.28125 234.894531 C 177.90625 229.953125 189.429688 230.894531 192.023438 236.992188 L 201.40625 259.082031 " fill-opacity="1" fill-rule="nonzero"/></g></g><g clip-path="url(#id18)"><g clip-path="url(#id19)"><path fill="#31899d" d="M 186.761719 281.675781 C 189.355469 287.777344 182.03125 296.726562 170.40625 301.664062 C 158.777344 306.605469 147.253906 305.664062 144.664062 299.5625 L 135.277344 277.476562 C 132.683594 271.375 140.007812 262.425781 151.632812 257.488281 C 163.257812 252.546875 174.785156 253.488281 177.375 259.585938 L 186.761719 281.675781 " fill-opacity="1" fill-rule="nonzero"/></g></g><g clip-path="url(#id20)"><g clip-path="url(#id21)"><path fill="#31899d" d="M 152.8125 290.226562 C 155.402344 296.324219 148.078125 305.273438 136.453125 310.214844 C 124.828125 315.152344 113.300781 314.214844 110.710938 308.113281 L 101.324219 286.023438 C 98.734375 279.925781 106.058594 270.976562 117.683594 266.035156 C 129.308594 261.097656 140.832031 262.035156 143.425781 268.136719 L 152.8125 290.226562 " fill-opacity="1" fill-rule="nonzero"/></g></g><g clip-path="url(#id22)"><g clip-path="url(#id23)"><path fill="#31899d" d="M 140.53125 270.640625 C 143.125 276.738281 135.800781 285.6875 124.175781 290.628906 C 112.550781 295.566406 101.023438 294.628906 98.433594 288.527344 L 89.046875 266.4375 C 86.457031 260.339844 93.777344 251.390625 105.40625 246.449219 C 117.03125 241.511719 128.554688 242.453125 131.148438 248.550781 L 140.53125 270.640625 " fill-opacity="1" fill-rule="nonzero"/></g></g><g clip-path="url(#id24)"><g clip-path="url(#id25)"><path fill="#31899d" d="M 113.859375 279.707031 C 115.085938 286.21875 106.015625 293.390625 93.601562 295.726562 C 81.1875 298.0625 70.132812 294.675781 68.90625 288.160156 L 64.46875 264.574219 C 63.242188 258.0625 72.3125 250.890625 84.726562 248.554688 C 97.140625 246.21875 108.199219 249.605469 109.421875 256.121094 L 113.859375 279.707031 " fill-opacity="1" fill-rule="nonzero"/></g></g><g clip-path="url(#id26)"><g clip-path="url(#id27)"><path fill="#31899d" d="M 120.246094 304.027344 C 121.472656 310.542969 112.402344 317.714844 99.988281 320.050781 C 87.574219 322.386719 76.519531 319 75.292969 312.484375 L 70.855469 288.898438 C 69.632812 282.386719 78.703125 275.210938 91.113281 272.878906 C 103.527344 270.542969 114.585938 273.929688 115.8125 280.441406 L 120.246094 304.027344 " fill-opacity="1" fill-rule="nonzero"/></g></g><g clip-path="url(#id28)"><path fill="#31899d" d="M 23.207031 227.375 L 28.457031 227.375 L 28.457031 334.421875 L 23.207031 334.421875 L 23.207031 227.375 " fill-opacity="1" fill-rule="nonzero"/></g><g clip-path="url(#id29)"><g clip-path="url(#id30)"><path fill="#31899d" d="M 99.761719 231.144531 L 167.339844 195.460938 C 175.78125 191 186.242188 194.234375 190.703125 202.683594 L 201.164062 222.496094 C 205.625 230.941406 202.398438 241.40625 193.957031 245.863281 L 126.378906 281.550781 C 117.933594 286.007812 107.476562 282.773438 103.015625 274.324219 L 92.550781 254.511719 C 88.089844 246.066406 91.320312 235.601562 99.761719 231.144531 " fill-opacity="1" fill-rule="nonzero"/></g></g><g clip-path="url(#id31)"><g clip-path="url(#id32)"><path fill="#31899d" d="M 31.761719 224.53125 L 127.339844 215.910156 C 131.472656 215.539062 135.125 218.589844 135.5 222.726562 L 139.265625 264.515625 C 139.640625 268.652344 136.589844 272.308594 132.457031 272.679688 L 36.882812 281.300781 C 32.746094 281.671875 29.09375 278.621094 28.71875 274.484375 L 24.953125 232.695312 C 24.578125 228.558594 27.628906 224.902344 31.761719 224.53125 " fill-opacity="1" fill-rule="nonzero"/></g></g><g clip-path="url(#id33)"><path fill="#31899d" d="M 35.597656 268.382812 L 123.953125 268.382812 C 126.957031 268.382812 129.835938 269.570312 131.957031 271.679688 C 134.082031 273.789062 135.273438 276.648438 135.273438 279.632812 C 135.273438 282.617188 134.082031 285.480469 131.957031 287.589844 C 129.835938 289.699219 126.957031 290.882812 123.953125 290.882812 L 35.597656 290.882812 C 32.59375 290.882812 29.714844 289.699219 27.589844 287.589844 C 25.46875 285.480469 24.273438 282.617188 24.273438 279.632812 C 24.273438 276.648438 25.46875 273.789062 27.589844 271.679688 C 29.714844 269.570312 32.59375 268.382812 35.597656 268.382812 " fill-opacity="1" fill-rule="nonzero"/></g><g clip-path="url(#id34)"><path fill="#31899d" d="M 37.285156 281.816406 L 125.644531 281.816406 C 128.644531 281.816406 131.527344 283.003906 133.648438 285.113281 C 135.773438 287.222656 136.964844 290.082031 136.964844 293.066406 C 136.964844 296.050781 135.773438 298.910156 133.648438 301.023438 C 131.527344 303.132812 128.644531 304.316406 125.644531 304.316406 L 37.285156 304.316406 C 34.285156 304.316406 31.40625 303.132812 29.28125 301.023438 C 27.15625 298.910156 25.964844 296.050781 25.964844 293.066406 C 25.964844 290.082031 27.15625 287.222656 29.28125 285.113281 C 31.40625 283.003906 34.285156 281.816406 37.285156 281.816406 " fill-opacity="1" fill-rule="nonzero"/></g><g clip-path="url(#id35)"><path fill="#31899d" d="M 62.253906 296.496094 L 65.664062 296.496094 C 73.417969 296.496094 79.707031 302.707031 79.707031 310.371094 C 79.707031 318.035156 73.417969 324.246094 65.664062 324.246094 L 62.253906 324.246094 C 54.5 324.246094 48.210938 318.035156 48.210938 310.371094 C 48.210938 302.707031 54.5 296.496094 62.253906 296.496094 " fill-opacity="1" fill-rule="nonzero"/></g><g clip-path="url(#id36)"><path fill="#31899d" d="M 38.320312 293.113281 L 41.730469 293.113281 C 49.484375 293.113281 55.769531 299.324219 55.769531 306.988281 C 55.769531 314.652344 49.484375 320.863281 41.730469 320.863281 L 38.320312 320.863281 C 30.566406 320.863281 24.277344 314.652344 24.277344 306.988281 C 24.277344 299.324219 30.566406 293.113281 38.320312 293.113281 " fill-opacity="1" fill-rule="nonzero"/></g><g clip-path="url(#id37)"><path fill="#31899d" d="M 24.277344 300.214844 L 55.769531 300.214844 L 55.769531 327.964844 L 24.277344 327.964844 L 24.277344 300.214844 " fill-opacity="1" fill-rule="nonzero"/></g><g clip-path="url(#id38)"><path fill="#100f0d" d="M 340.714844 187.492188 L 218.027344 187.492188 L 221.40625 182.421875 L 213.019531 165.640625 L 340.714844 165.640625 Z M 340.714844 340.441406 L 34.878906 340.441406 L 34.878906 334.074219 L 90.5 323.960938 L 180.144531 307.148438 L 204.179688 271.082031 L 204.179688 238.917969 L 221.75 221.34375 L 210.484375 198.808594 L 210.742188 198.417969 L 340.714844 198.417969 Z M 93.878906 297.925781 L 100.417969 304.464844 L 100.417969 310.984375 L 91.316406 312.691406 L 82.332031 303.699219 Z M 145.183594 270.613281 L 159.902344 277.972656 L 156.144531 300.535156 L 135.574219 304.394531 L 128.667969 287.132812 Z M 193.257812 103.085938 C 193.257812 101.546875 193.449219 100.007812 193.820312 98.511719 L 198.71875 78.914062 L 198.71875 50.929688 C 198.71875 41.894531 206.070312 34.542969 215.105469 34.542969 C 224.136719 34.542969 231.488281 41.894531 231.488281 50.929688 L 231.488281 78.914062 L 236.386719 98.511719 C 236.761719 100.007812 236.949219 101.546875 236.949219 103.085938 C 236.949219 112.644531 229.796875 120.558594 220.566406 121.777344 L 220.566406 61.855469 L 209.644531 61.855469 L 209.644531 121.777344 C 200.410156 120.5625 193.257812 112.644531 193.257812 103.085938 Z M 307.945312 121.941406 L 307.945312 154.714844 L 297.023438 154.714844 L 297.023438 121.941406 Z M 269.71875 102.355469 L 302.484375 69.578125 L 335.253906 102.355469 L 335.253906 154.714844 L 318.871094 154.714844 L 318.871094 111.015625 L 286.101562 111.015625 L 286.101562 154.714844 L 269.71875 154.714844 Z M 67.648438 295.753906 L 48.535156 292.570312 L 54.1875 281.253906 L 67.648438 284.621094 Z M 346.175781 154.714844 L 346.175781 97.828125 L 302.484375 54.128906 L 258.792969 97.828125 L 258.792969 154.714844 L 220.566406 154.714844 L 220.566406 132.757812 C 235.832031 131.496094 247.871094 118.675781 247.871094 103.085938 C 247.871094 100.652344 247.574219 98.226562 246.984375 95.863281 L 242.410156 77.570312 L 242.410156 50.929688 C 242.410156 35.871094 230.160156 23.617188 215.105469 23.617188 C 200.046875 23.617188 187.796875 35.871094 187.796875 50.929688 L 187.796875 77.570312 L 183.222656 95.863281 C 182.632812 98.222656 182.335938 100.652344 182.335938 103.085938 C 182.335938 118.675781 194.375 131.496094 209.644531 132.757812 L 209.644531 154.714844 L 206.363281 154.714844 C 194.980469 144.140625 180.257812 138.328125 164.640625 138.328125 L 161.324219 138.328125 C 161.320312 138.328125 161.316406 138.328125 161.308594 138.328125 C 132.925781 138.328125 108.28125 158.542969 102.710938 186.398438 L 102.585938 187.039062 C 101.753906 191.195312 102.816406 195.457031 105.503906 198.730469 C 108.1875 202.007812 112.160156 203.882812 116.398438 203.882812 C 116.398438 203.882812 116.40625 203.882812 116.40625 203.882812 L 117.082031 203.882812 C 122.183594 203.878906 126.988281 201.160156 129.609375 196.78125 L 139.882812 179.65625 C 141.027344 177.75 143.121094 176.566406 145.339844 176.566406 C 145.34375 176.566406 145.34375 176.566406 145.34375 176.566406 C 147.316406 176.566406 149.148438 177.460938 150.359375 179.019531 C 151.574219 180.574219 151.996094 182.566406 151.515625 184.480469 C 147.664062 199.902344 134.988281 211.199219 119.226562 213.253906 L 23.25 225.773438 L 24.664062 236.609375 L 120.640625 224.085938 C 135.703125 222.125 148.5625 213.585938 156.207031 201.1875 C 155.941406 205.175781 154.984375 209.144531 153.3125 212.941406 C 148.90625 222.941406 140.28125 230.128906 129.652344 232.660156 L 66.382812 247.730469 L 68.910156 258.355469 L 132.183594 243.289062 C 146.167969 239.957031 157.511719 230.5 163.308594 217.34375 C 169.011719 204.398438 168.429688 189.910156 161.757812 177.472656 C 161.140625 175.628906 160.207031 173.878906 158.96875 172.292969 C 155.671875 168.066406 150.703125 165.640625 145.34375 165.640625 C 139.304688 165.640625 133.625 168.859375 130.515625 174.039062 L 120.246094 191.160156 C 119.582031 192.269531 118.367188 192.957031 117.070312 192.960938 L 116.398438 192.960938 C 116.398438 192.960938 116.398438 192.960938 116.394531 192.960938 C 115.089844 192.960938 114.304688 192.234375 113.945312 191.800781 C 113.59375 191.371094 113.039062 190.457031 113.292969 189.183594 L 113.421875 188.539062 C 117.976562 165.773438 138.113281 149.25 161.308594 149.25 C 161.3125 149.25 161.320312 149.25 161.324219 149.25 L 164.636719 149.25 C 177.835938 149.253906 190.257812 154.304688 199.722656 163.46875 L 208.800781 181.636719 L 197.878906 198.023438 L 208.457031 219.1875 L 193.257812 234.390625 L 193.257812 267.777344 L 173.609375 297.257812 L 167.574219 298.390625 L 172.003906 271.8125 L 143.03125 257.320312 L 115.851562 284.5 L 124.628906 306.445312 L 111.339844 308.9375 L 111.339844 299.941406 L 96.03125 284.632812 L 78.570312 293.363281 L 78.570312 276.089844 L 48.339844 268.53125 L 32.148438 300.914062 L 70.484375 307.304688 L 78.261719 315.082031 L 23.957031 324.957031 L 23.957031 351.367188 L 351.636719 351.367188 L 351.636719 154.714844 L 346.175781 154.714844 " fill-opacity="1" fill-rule="nonzero"/></g><path fill="#100f0d" d="M 307.945312 214.804688 L 297.023438 214.804688 L 297.023438 225.730469 L 307.945312 225.730469 L 307.945312 214.804688 " fill-opacity="1" fill-rule="nonzero"/><path fill="#100f0d" d="M 280.640625 231.191406 L 269.71875 231.191406 L 269.71875 242.117188 L 280.640625 242.117188 L 280.640625 231.191406 " fill-opacity="1" fill-rule="nonzero"/><path fill="#100f0d" d="M 242.410156 236.652344 L 231.488281 236.652344 L 231.488281 247.578125 L 242.410156 247.578125 L 242.410156 236.652344 " fill-opacity="1" fill-rule="nonzero"/><path fill="#100f0d" d="M 307.945312 274.890625 L 297.023438 274.890625 L 297.023438 285.816406 L 307.945312 285.816406 L 307.945312 274.890625 " fill-opacity="1" fill-rule="nonzero"/><path fill="#100f0d" d="M 247.871094 274.890625 L 258.792969 274.890625 L 258.792969 263.964844 L 247.871094 263.964844 L 247.871094 274.890625 " fill-opacity="1" fill-rule="nonzero"/><path fill="#100f0d" d="M 324.332031 242.117188 L 313.40625 242.117188 L 313.40625 253.042969 L 324.332031 253.042969 L 324.332031 242.117188 " fill-opacity="1" fill-rule="nonzero"/><path fill="#100f0d" d="M 307.945312 329.515625 L 318.871094 329.515625 L 318.871094 318.589844 L 307.945312 318.589844 L 307.945312 329.515625 " fill-opacity="1" fill-rule="nonzero"/><path fill="#100f0d" d="M 264.257812 324.054688 L 275.179688 324.054688 L 275.179688 313.128906 L 264.257812 313.128906 L 264.257812 324.054688 " fill-opacity="1" fill-rule="nonzero"/><path fill="#100f0d" d="M 209.644531 318.589844 L 220.566406 318.589844 L 220.566406 307.667969 L 209.644531 307.667969 L 209.644531 318.589844 " fill-opacity="1" fill-rule="nonzero"/><path fill="#100f0d" d="M 165.953125 329.515625 L 176.875 329.515625 L 176.875 318.589844 L 165.953125 318.589844 L 165.953125 329.515625 " fill-opacity="1" fill-rule="nonzero"/><path fill="#100f0d" d="M 253.332031 302.203125 L 264.257812 302.203125 L 264.257812 291.277344 L 253.332031 291.277344 L 253.332031 302.203125 " fill-opacity="1" fill-rule="nonzero"/><path fill="#100f0d" d="M 215.105469 280.355469 L 226.027344 280.355469 L 226.027344 269.429688 L 215.105469 269.429688 L 215.105469 280.355469 " fill-opacity="1" fill-rule="nonzero"/><path fill="#100f0d" d="M 253.332031 209.339844 L 242.410156 209.339844 L 242.410156 220.265625 L 253.332031 220.265625 L 253.332031 209.339844 " fill-opacity="1" fill-rule="nonzero"/><g clip-path="url(#id39)"><path fill="#100f0d" d="M 100.417969 56.390625 C 100.417969 47.355469 93.066406 40.003906 84.03125 40.003906 L 73.109375 40.003906 L 73.109375 50.929688 L 84.03125 50.929688 C 87.042969 50.929688 89.492188 53.378906 89.492188 56.390625 C 89.492188 59.402344 87.042969 61.855469 84.03125 61.855469 L 23.957031 61.855469 L 23.957031 72.777344 L 84.03125 72.777344 C 93.066406 72.777344 100.417969 65.429688 100.417969 56.390625 " fill-opacity="1" fill-rule="nonzero"/></g><path fill="#100f0d" d="M 56.726562 94.628906 L 127.722656 94.628906 C 130.734375 94.628906 133.183594 97.082031 133.183594 100.089844 C 133.183594 103.101562 130.734375 105.554688 127.722656 105.554688 L 116.800781 105.554688 L 116.800781 116.480469 L 127.722656 116.480469 C 136.757812 116.480469 144.105469 109.128906 144.105469 100.089844 C 144.105469 91.054688 136.757812 83.703125 127.722656 83.703125 L 56.726562 83.703125 L 56.726562 94.628906 " fill-opacity="1" fill-rule="nonzero"/><path fill="#100f0d" d="M 94.953125 176.566406 L 94.953125 165.640625 L 84.03125 165.640625 L 84.03125 176.566406 L 94.953125 176.566406 " fill-opacity="1" fill-rule="nonzero"/><path fill="#100f0d" d="M 78.570312 143.792969 L 67.648438 143.792969 L 67.648438 154.714844 L 78.570312 154.714844 L 78.570312 143.792969 " fill-opacity="1" fill-rule="nonzero"/><path fill="#100f0d" d="M 84.03125 192.953125 L 73.109375 192.953125 L 73.109375 203.878906 L 84.03125 203.878906 L 84.03125 192.953125 " fill-opacity="1" fill-rule="nonzero"/><path fill="#100f0d" d="M 111.339844 143.792969 L 111.339844 132.867188 L 100.417969 132.867188 L 100.417969 143.792969 L 111.339844 143.792969 " fill-opacity="1" fill-rule="nonzero"/></svg>