<svg xmlns="http://www.w3.org/2000/svg" xmlns:xlink="http://www.w3.org/1999/xlink" width="500" zoomAndPan="magnify" viewBox="0 0 375 374.999991" height="500" preserveAspectRatio="xMidYMid meet" version="1.0"><defs><clipPath id="id1"><path d="M 189 43.328125 L 197 43.328125 L 197 263 L 189 263 Z M 189 43.328125 " clip-rule="nonzero"/></clipPath><clipPath id="id2"><path d="M 40.734375 189 L 337.734375 189 L 337.734375 285 L 40.734375 285 Z M 40.734375 189 " clip-rule="nonzero"/></clipPath><clipPath id="id3"><path d="M 68 251 L 321 251 L 321 311.828125 L 68 311.828125 Z M 68 251 " clip-rule="nonzero"/></clipPath></defs><g clip-path="url(#id1)"><path fill="#000000" d="M 189.769531 43.328125 L 196.890625 43.328125 L 196.890625 262.199219 L 189.769531 262.199219 Z M 189.769531 43.328125 " fill-opacity="1" fill-rule="nonzero"/></g><path fill="#31899d" d="M 74.464844 147.09375 L 121.9375 146.976562 C 144.726562 98.890625 193.328125 62.5 193.328125 62.5 C 193.328125 62.5 97.3125 99.011719 74.464844 147.09375 Z M 74.464844 147.09375 " fill-opacity="1" fill-rule="nonzero"/><path fill="#000000" d="M 74.464844 150.65625 C 73.21875 150.65625 72.089844 150.003906 71.4375 148.992188 C 70.785156 147.984375 70.726562 146.679688 71.203125 145.550781 C 80.992188 124.953125 104.375 104.113281 140.632812 83.632812 C 167.394531 68.554688 191.726562 59.238281 191.964844 59.117188 C 193.625 58.464844 195.464844 59.175781 196.355469 60.71875 C 197.1875 62.265625 196.769531 64.222656 195.347656 65.292969 C 194.871094 65.648438 147.21875 101.742188 125.085938 148.460938 C 124.492188 149.707031 123.246094 150.476562 121.878906 150.476562 L 74.464844 150.65625 C 74.523438 150.65625 74.523438 150.65625 74.464844 150.65625 Z M 172.914062 75.207031 C 145.082031 88.207031 98.320312 113.433594 80.457031 143.472656 L 119.742188 143.355469 C 133.984375 114.386719 156.890625 90.046875 172.914062 75.207031 Z M 172.914062 75.207031 " fill-opacity="1" fill-rule="nonzero"/><path fill="#31899d" d="M 193.328125 62.5 C 194.515625 63.390625 242.285156 99.128906 265.132812 146.441406 L 312.609375 146.324219 C 289.820312 99.011719 195.761719 63.390625 193.328125 62.5 Z M 193.328125 62.5 " fill-opacity="1" fill-rule="nonzero"/><path fill="#000000" d="M 265.132812 150.003906 C 263.769531 150.003906 262.523438 149.230469 261.929688 147.984375 C 239.378906 101.207031 191.726562 65.707031 191.25 65.351562 C 190.363281 64.699219 189.828125 63.628906 189.828125 62.5 C 189.828125 61.3125 190.421875 60.246094 191.371094 59.535156 C 192.320312 58.878906 193.566406 58.703125 194.632812 59.117188 C 198.609375 60.601562 292.492188 96.21875 315.871094 144.71875 C 316.40625 145.847656 316.347656 147.09375 315.695312 148.164062 C 315.039062 149.171875 313.914062 149.824219 312.667969 149.824219 Z M 213.625 75.027344 C 229.765625 89.808594 252.96875 114.207031 267.328125 142.9375 L 306.613281 142.820312 C 288.574219 112.839844 241.515625 87.789062 213.625 75.027344 Z M 213.625 75.027344 " fill-opacity="1" fill-rule="nonzero"/><path fill="#31899d" d="M 98.378906 170.839844 C 111.496094 170.78125 122.117188 160.09375 122.117188 146.976562 L 74.523438 147.09375 C 74.523438 160.214844 85.207031 170.839844 98.378906 170.839844 Z M 98.378906 170.839844 " fill-opacity="1" fill-rule="nonzero"/><path fill="#000000" d="M 98.320312 174.402344 C 83.308594 174.402344 71.023438 162.171875 70.964844 147.09375 C 70.964844 146.144531 71.320312 145.253906 71.972656 144.601562 C 72.625 143.949219 73.515625 143.53125 74.464844 143.53125 L 122.058594 143.414062 C 123.007812 143.355469 123.898438 143.769531 124.550781 144.421875 C 125.203125 145.074219 125.617188 145.964844 125.617188 146.914062 C 125.679688 161.996094 113.453125 174.339844 98.320312 174.402344 C 98.378906 174.402344 98.320312 174.402344 98.320312 174.402344 Z M 78.382812 150.597656 C 80.101562 160.035156 88.410156 167.21875 98.320312 167.21875 L 98.320312 170.78125 L 98.378906 167.21875 C 108.351562 167.160156 116.597656 159.917969 118.261719 150.476562 Z M 78.382812 150.597656 " fill-opacity="1" fill-rule="nonzero"/><path fill="#000000" d="M 145.914062 174.222656 C 130.839844 174.222656 118.558594 161.996094 118.558594 146.914062 C 118.558594 144.957031 120.160156 143.355469 122.117188 143.355469 L 169.710938 143.175781 C 170.660156 143.175781 171.550781 143.53125 172.203125 144.183594 C 172.855469 144.839844 173.269531 145.730469 173.269531 146.679688 C 173.332031 161.757812 161.105469 174.105469 145.972656 174.164062 C 145.972656 174.222656 145.914062 174.222656 145.914062 174.222656 Z M 125.976562 150.476562 C 127.695312 159.917969 136.003906 167.097656 145.914062 167.097656 L 145.914062 170.660156 L 145.972656 167.097656 C 155.941406 167.039062 164.191406 159.796875 165.851562 150.359375 Z M 125.976562 150.476562 " fill-opacity="1" fill-rule="nonzero"/><path fill="#31899d" d="M 193.566406 170.484375 C 206.679688 170.421875 217.363281 159.738281 217.304688 146.617188 L 169.710938 146.796875 C 169.769531 159.917969 180.453125 170.542969 193.566406 170.484375 Z M 193.566406 170.484375 " fill-opacity="1" fill-rule="nonzero"/><path fill="#000000" d="M 193.507812 174.046875 C 178.492188 174.046875 166.210938 161.816406 166.148438 146.738281 C 166.148438 144.777344 167.753906 143.175781 169.710938 143.175781 L 217.304688 142.996094 C 219.261719 142.996094 220.863281 144.601562 220.863281 146.558594 C 220.863281 153.863281 218.074219 160.746094 212.910156 165.972656 C 207.75 171.136719 200.925781 174.046875 193.566406 174.046875 C 193.566406 174.046875 193.507812 174.046875 193.507812 174.046875 Z M 173.566406 150.300781 C 175.289062 159.738281 183.597656 166.921875 193.507812 166.921875 L 193.507812 170.484375 L 193.566406 166.921875 C 198.964844 166.921875 204.070312 164.785156 207.867188 160.925781 C 210.835938 157.957031 212.734375 154.21875 213.445312 150.121094 Z M 173.566406 150.300781 " fill-opacity="1" fill-rule="nonzero"/><path fill="#000000" d="M 241.097656 173.925781 C 226.085938 173.925781 213.800781 161.699219 213.742188 146.617188 C 213.742188 145.667969 214.097656 144.777344 214.75 144.125 C 215.402344 143.472656 216.292969 143.058594 217.242188 143.058594 L 264.835938 142.878906 C 265.726562 142.761719 266.675781 143.234375 267.328125 143.886719 C 267.980469 144.542969 268.398438 145.433594 268.398438 146.382812 C 268.398438 153.683594 265.609375 160.570312 260.445312 165.792969 C 255.28125 170.957031 248.398438 173.867188 241.101562 173.867188 C 241.21875 173.925781 241.097656 173.925781 241.097656 173.925781 Z M 221.21875 150.179688 C 222.941406 159.621094 231.25 166.800781 241.097656 166.800781 L 241.097656 170.363281 L 241.160156 166.800781 C 246.558594 166.800781 251.664062 164.664062 255.460938 160.808594 C 258.425781 157.839844 260.328125 154.097656 261.039062 150.003906 Z M 221.21875 150.179688 " fill-opacity="1" fill-rule="nonzero"/><path fill="#31899d" d="M 288.8125 170.1875 C 301.984375 170.128906 312.609375 159.441406 312.546875 146.324219 L 264.957031 146.441406 C 264.957031 159.621094 275.636719 170.246094 288.8125 170.1875 Z M 288.8125 170.1875 " fill-opacity="1" fill-rule="nonzero"/><path fill="#000000" d="M 288.75 173.75 C 273.738281 173.75 261.453125 161.519531 261.394531 146.441406 C 261.394531 145.492188 261.75 144.601562 262.402344 143.949219 C 263.054688 143.292969 263.945312 142.878906 264.894531 142.878906 L 312.488281 142.761719 C 314.445312 142.761719 316.050781 144.363281 316.050781 146.324219 C 316.109375 161.402344 303.882812 173.75 288.75 173.808594 C 288.8125 173.75 288.75 173.75 288.75 173.75 Z M 268.8125 150.003906 C 270.535156 159.441406 278.839844 166.625 288.75 166.625 L 288.75 170.1875 L 288.8125 166.625 C 298.78125 166.566406 307.03125 159.324219 308.691406 149.882812 Z M 268.8125 150.003906 " fill-opacity="1" fill-rule="nonzero"/><path fill="#000000" d="M 122 150.476562 C 120.753906 150.476562 119.625 149.824219 118.972656 148.816406 C 118.320312 147.804688 118.261719 146.5 118.734375 145.371094 C 141.699219 97.109375 189.234375 61.136719 191.191406 59.59375 C 192.4375 58.703125 194.101562 58.644531 195.347656 59.535156 C 196.59375 60.421875 197.1875 61.96875 196.769531 63.453125 L 172.972656 147.746094 C 172.558594 149.289062 171.132812 150.359375 169.53125 150.359375 Z M 186.859375 72.355469 C 172.738281 84.464844 144.609375 111.058594 127.753906 143.355469 L 166.863281 143.234375 Z M 186.859375 72.355469 " fill-opacity="1" fill-rule="nonzero"/><path fill="#31899d" d="M 193.328125 62.5625 C 193.328125 62.5625 193.328125 62.621094 193.328125 62.679688 C 193.328125 62.621094 193.328125 62.5 193.328125 62.5 L 169.53125 146.796875 L 217.601562 146.617188 Z M 193.328125 62.5625 " fill-opacity="1" fill-rule="nonzero"/><path fill="#000000" d="M 169.53125 150.359375 C 168.40625 150.359375 167.394531 149.824219 166.683594 148.933594 C 166.03125 148.042969 165.792969 146.914062 166.089844 145.789062 L 189.886719 61.492188 C 190.363281 59.710938 192.140625 58.644531 193.921875 58.941406 C 195.226562 59.175781 196.296875 60.125 196.710938 61.3125 C 196.769531 61.375 196.769531 61.492188 196.769531 61.550781 L 220.984375 145.609375 C 221.277344 146.679688 221.101562 147.867188 220.390625 148.757812 C 219.734375 149.648438 218.667969 150.179688 217.539062 150.179688 Z M 193.386719 75.441406 L 174.21875 143.234375 L 212.851562 143.117188 Z M 193.386719 75.441406 " fill-opacity="1" fill-rule="nonzero"/><path fill="#000000" d="M 217.601562 150.179688 C 215.996094 150.179688 214.632812 149.113281 214.15625 147.628906 L 189.945312 63.570312 C 189.53125 62.085938 190.066406 60.542969 191.371094 59.652344 C 192.617188 58.761719 194.277344 58.820312 195.523438 59.710938 C 197.542969 61.195312 245.3125 97.167969 268.339844 144.898438 C 268.871094 146.027344 268.8125 147.273438 268.160156 148.339844 C 267.507812 149.351562 266.378906 150.003906 265.132812 150.003906 Z M 199.914062 72.355469 L 220.269531 142.996094 L 259.378906 142.878906 C 242.226562 110.527344 214.097656 84.347656 199.914062 72.355469 Z M 199.914062 72.355469 " fill-opacity="1" fill-rule="nonzero"/><path fill="#31899d" d="M 316.582031 195.890625 C 314.445312 193.21875 311.363281 191.558594 307.980469 191.199219 C 304.597656 190.84375 301.214844 191.792969 298.601562 193.992188 L 281.039062 208.179688 C 280.621094 208.535156 280.265625 208.890625 279.910156 209.308594 L 219.972656 258.636719 L 88.351562 258.636719 L 65.800781 258.695312 C 62.359375 258.695312 59.15625 260.0625 56.78125 262.496094 C 54.347656 264.929688 53.042969 268.136719 53.042969 271.578125 C 53.042969 275.023438 54.464844 278.226562 57.019531 280.601562 C 59.453125 282.859375 62.65625 284.164062 66.039062 284.164062 C 66.039062 284.164062 66.097656 284.164062 66.097656 284.164062 L 66.097656 280.601562 L 227.925781 280.722656 L 230.179688 283.453125 L 306.257812 220.765625 L 314.683594 213.996094 C 320.144531 209.425781 320.976562 201.410156 316.582031 195.890625 Z M 316.582031 195.890625 " fill-opacity="1" fill-rule="nonzero"/><g clip-path="url(#id2)"><path fill="#000000" d="M 227.867188 284.046875 L 40.878906 284.046875 L 40.878906 276.921875 L 226.621094 276.921875 L 333.082031 189.125 L 337.589844 194.644531 L 230.121094 283.214844 C 229.527344 283.75 228.695312 284.046875 227.867188 284.046875 Z M 227.867188 284.046875 " fill-opacity="1" fill-rule="nonzero"/></g><g clip-path="url(#id3)"><path fill="#000000" d="M 317.355469 311.828125 L 72.03125 311.828125 C 70.074219 311.828125 68.472656 310.222656 68.472656 308.265625 L 68.472656 281.195312 L 75.59375 281.195312 L 75.59375 304.703125 L 308.277344 304.703125 L 256.886719 257.152344 L 261.75 251.929688 L 319.789062 305.710938 C 320.855469 306.722656 321.210938 308.265625 320.679688 309.628906 C 320.144531 310.9375 318.839844 311.828125 317.355469 311.828125 Z M 317.355469 311.828125 " fill-opacity="1" fill-rule="nonzero"/></g></svg>