<svg xmlns="http://www.w3.org/2000/svg" xmlns:xlink="http://www.w3.org/1999/xlink" width="600" zoomAndPan="magnify" viewBox="0 0 450 449.999984" height="600" preserveAspectRatio="xMidYMid meet" version="1.0"><defs><clipPath id="id1"><path d="M 5.234375 5.234375 L 442.484375 5.234375 L 442.484375 442.484375 L 5.234375 442.484375 Z M 5.234375 5.234375 " clip-rule="nonzero"/></clipPath><clipPath id="id2"><path d="M 45 267 L 166 267 L 166 311 L 45 311 Z M 45 267 " clip-rule="nonzero"/></clipPath><clipPath id="id3"><path d="M 45 226 L 166 226 L 166 267 L 45 267 Z M 45 226 " clip-rule="nonzero"/></clipPath><clipPath id="id4"><path d="M 45 181 L 166 181 L 166 226 L 45 226 Z M 45 181 " clip-rule="nonzero"/></clipPath><clipPath id="id5"><path d="M 45 130 L 166 130 L 166 184 L 45 184 Z M 45 130 " clip-rule="nonzero"/></clipPath><clipPath id="id6"><path d="M 180 82.574219 L 389.25 82.574219 L 389.25 159 L 180 159 Z M 180 82.574219 " clip-rule="nonzero"/></clipPath><clipPath id="id7"><path d="M 180 147 L 389.25 147 L 389.25 210 L 180 210 Z M 180 147 " clip-rule="nonzero"/></clipPath><clipPath id="id8"><path d="M 180 203 L 389.25 203 L 389.25 261 L 180 261 Z M 180 203 " clip-rule="nonzero"/></clipPath><clipPath id="id9"><path d="M 180 254 L 389.25 254 L 389.25 311 L 180 311 Z M 180 254 " clip-rule="nonzero"/></clipPath><clipPath id="id10"><path d="M 180 305 L 389.25 305 L 389.25 365.324219 L 180 365.324219 Z M 180 305 " clip-rule="nonzero"/></clipPath></defs><rect x="-45" width="540" fill="#ffffff" y="-44.999998" height="539.99998" fill-opacity="1"/><rect x="-45" width="540" fill="#ffffff" y="-44.999998" height="539.99998" fill-opacity="1"/><rect x="-45" width="540" fill="#ffffff" y="-44.999998" height="539.99998" fill-opacity="1"/><rect x="-45" width="540" fill="#ffffff" y="-44.999998" height="539.99998" fill-opacity="1"/><g clip-path="url(#id1)"><path fill="#31899d" d="M 223.859375 5.234375 C 103.113281 5.234375 5.234375 103.113281 5.234375 223.859375 C 5.234375 344.601562 103.113281 442.484375 223.859375 442.484375 C 344.601562 442.484375 442.484375 344.601562 442.484375 223.859375 C 442.484375 103.113281 344.601562 5.234375 223.859375 5.234375 " fill-opacity="1" fill-rule="nonzero"/></g><g clip-path="url(#id2)"><path fill="#ffffff" d="M 102.003906 281.65625 C 102.480469 282.425781 102.769531 283.332031 102.769531 284.304688 L 102.769531 297.785156 C 102.769531 300.578125 100.507812 302.84375 97.714844 302.84375 C 94.921875 302.84375 92.65625 300.578125 92.65625 297.785156 L 92.65625 284.304688 C 92.65625 282.9375 93.207031 281.699219 94.085938 280.789062 C 89.628906 280.222656 85.425781 279.523438 81.398438 278.746094 C 81.558594 279.238281 81.664062 279.746094 81.664062 280.285156 L 81.664062 293.769531 C 81.664062 296.5625 79.402344 298.828125 76.609375 298.828125 C 73.816406 298.828125 71.554688 296.5625 71.554688 293.769531 L 71.554688 280.285156 C 71.554688 278.988281 72.054688 277.816406 72.859375 276.921875 C 68.140625 275.796875 63.804688 274.589844 59.859375 273.347656 C 59.867188 273.457031 59.894531 273.566406 59.894531 273.675781 L 59.894531 287.15625 C 59.894531 289.953125 57.632812 292.214844 54.839844 292.214844 C 52.042969 292.214844 49.78125 289.953125 49.78125 287.15625 L 49.78125 273.675781 C 49.78125 272.390625 50.273438 271.230469 51.066406 270.339844 C 48.839844 269.507812 46.824219 268.707031 44.996094 267.9375 L 44.996094 284.375 C 44.996094 295.128906 74.699219 310.746094 121.238281 310.746094 C 138.398438 310.746094 153.246094 308.613281 165.183594 305.394531 L 165.183594 277.707031 C 152.507812 280.457031 137.5 282.476562 120.632812 282.476562 C 114.117188 282.476562 107.90625 282.179688 102.003906 281.65625 " fill-opacity="1" fill-rule="nonzero"/></g><g clip-path="url(#id3)"><path fill="#ffffff" d="M 102.769531 240.652344 L 102.769531 254.09375 C 102.769531 256.886719 100.507812 259.148438 97.714844 259.148438 C 94.921875 259.148438 92.65625 256.886719 92.65625 254.09375 L 92.65625 240.609375 C 92.65625 240.253906 92.695312 239.90625 92.765625 239.570312 C 88.882812 239.050781 85.214844 238.417969 81.664062 237.746094 L 81.664062 250.074219 C 81.664062 252.871094 79.402344 255.132812 76.609375 255.132812 C 73.816406 255.132812 71.554688 252.871094 71.554688 250.074219 L 71.554688 236.59375 C 71.554688 236.246094 71.585938 235.910156 71.652344 235.582031 C 67.402344 234.542969 63.496094 233.433594 59.894531 232.300781 L 59.894531 243.464844 C 59.894531 246.257812 57.632812 248.523438 54.839844 248.523438 C 52.042969 248.523438 49.78125 246.257812 49.78125 243.464844 L 49.78125 229.984375 C 49.78125 229.589844 49.835938 229.214844 49.917969 228.847656 C 48.144531 228.167969 46.5 227.511719 44.996094 226.882812 L 44.996094 250.875 C 54.648438 255.542969 82.148438 266.933594 120.632812 266.933594 C 137.734375 266.933594 152.8125 264.675781 165.183594 261.757812 L 165.183594 236.652344 C 152.507812 239.402344 137.5 241.421875 120.632812 241.421875 C 114.394531 241.421875 108.449219 241.132812 102.769531 240.652344 " fill-opacity="1" fill-rule="nonzero"/></g><g clip-path="url(#id4)"><path fill="#ffffff" d="M 102.769531 198.132812 L 102.769531 211.527344 C 102.769531 214.320312 100.507812 216.585938 97.714844 216.585938 C 94.921875 216.585938 92.65625 214.320312 92.65625 211.527344 L 92.65625 198.046875 C 92.65625 197.675781 92.703125 197.320312 92.777344 196.972656 C 89 196.433594 85.289062 195.785156 81.664062 195.03125 L 81.664062 207.511719 C 81.664062 210.304688 79.402344 212.570312 76.609375 212.570312 C 73.816406 212.570312 71.554688 210.304688 71.554688 207.511719 L 71.554688 194.027344 C 71.554688 193.546875 71.640625 193.085938 71.769531 192.644531 C 67.605469 191.484375 63.628906 190.171875 59.894531 188.703125 L 59.894531 200.902344 C 59.894531 203.695312 57.632812 205.957031 54.839844 205.957031 C 52.042969 205.957031 49.78125 203.695312 49.78125 200.902344 L 49.78125 187.421875 C 49.78125 186.335938 50.125 185.34375 50.707031 184.519531 C 48.6875 183.449219 46.777344 182.320312 44.996094 181.136719 L 44.996094 209.816406 C 54.648438 214.484375 82.148438 225.878906 120.632812 225.878906 C 137.734375 225.878906 152.8125 223.621094 165.183594 220.699219 L 165.183594 194.046875 C 151.488281 197.292969 136.214844 198.976562 121.238281 198.976562 C 115.089844 198.976562 108.894531 198.683594 102.769531 198.132812 " fill-opacity="1" fill-rule="nonzero"/></g><g clip-path="url(#id5)"><path fill="#ffffff" d="M 160.832031 134.972656 C 160.035156 134.789062 159.242188 134.605469 158.425781 134.429688 C 157.078125 134.140625 155.695312 133.871094 154.289062 133.609375 C 153.628906 133.488281 152.988281 133.355469 152.320312 133.242188 C 150.242188 132.886719 148.105469 132.558594 145.90625 132.269531 C 145.371094 132.203125 144.808594 132.144531 144.269531 132.078125 C 142.519531 131.867188 140.738281 131.675781 138.917969 131.507812 C 138.128906 131.4375 137.332031 131.375 136.535156 131.3125 C 134.816406 131.179688 133.066406 131.070312 131.289062 130.980469 C 130.523438 130.941406 129.765625 130.898438 128.988281 130.867188 C 126.457031 130.769531 123.886719 130.707031 121.238281 130.707031 C 118.597656 130.707031 116.027344 130.769531 113.492188 130.867188 C 112.714844 130.898438 111.957031 130.941406 111.191406 130.980469 C 109.410156 131.070312 107.664062 131.179688 105.945312 131.3125 C 105.144531 131.375 104.347656 131.4375 103.5625 131.507812 C 101.742188 131.675781 99.964844 131.867188 98.210938 132.078125 C 97.667969 132.144531 97.109375 132.203125 96.574219 132.269531 C 94.375 132.558594 92.238281 132.886719 90.160156 133.242188 C 89.488281 133.355469 88.851562 133.488281 88.191406 133.609375 C 86.785156 133.871094 85.402344 134.140625 84.054688 134.429688 C 83.238281 134.609375 82.441406 134.789062 81.648438 134.972656 C 80.507812 135.242188 79.402344 135.519531 78.304688 135.804688 C 77.507812 136.011719 76.703125 136.21875 75.929688 136.433594 C 74.8125 136.75 73.742188 137.082031 72.679688 137.417969 C 71.28125 137.859375 69.9375 138.3125 68.628906 138.777344 C 67.976562 139.015625 67.304688 139.246094 66.679688 139.488281 C 65.738281 139.847656 64.847656 140.214844 63.96875 140.585938 C 63.503906 140.78125 63.050781 140.980469 62.605469 141.175781 C 61.675781 141.589844 60.769531 142.003906 59.90625 142.425781 C 59.710938 142.523438 59.527344 142.625 59.332031 142.722656 C 56.253906 144.277344 53.640625 145.894531 51.523438 147.535156 C 51.503906 147.550781 51.484375 147.5625 51.464844 147.578125 C 50.730469 148.148438 50.0625 148.71875 49.449219 149.289062 C 46.578125 151.96875 44.996094 154.640625 44.996094 157.0625 C 44.996094 159.484375 46.578125 162.15625 49.445312 164.835938 C 50.058594 165.410156 50.730469 165.980469 51.464844 166.550781 C 51.480469 166.5625 51.496094 166.574219 51.511719 166.585938 C 53.628906 168.230469 56.246094 169.847656 59.335938 171.414062 C 59.527344 171.507812 59.707031 171.605469 59.902344 171.703125 C 60.765625 172.128906 61.671875 172.546875 62.605469 172.960938 C 63.050781 173.15625 63.5 173.347656 63.957031 173.539062 C 64.84375 173.917969 65.734375 174.285156 66.675781 174.644531 C 67.300781 174.886719 67.96875 175.117188 68.617188 175.351562 C 69.9375 175.828125 71.292969 176.285156 72.710938 176.726562 C 73.761719 177.058594 74.816406 177.386719 75.921875 177.699219 C 76.699219 177.921875 77.507812 178.125 78.3125 178.332031 C 79.402344 178.617188 80.503906 178.898438 81.644531 179.160156 C 82.4375 179.347656 83.238281 179.527344 84.054688 179.703125 C 85.402344 179.996094 86.789062 180.265625 88.195312 180.527344 C 88.851562 180.648438 89.488281 180.78125 90.15625 180.898438 C 92.238281 181.253906 94.375 181.578125 96.574219 181.867188 C 97.109375 181.9375 97.667969 181.992188 98.210938 182.058594 C 99.960938 182.273438 101.742188 182.464844 103.5625 182.628906 C 104.347656 182.703125 105.144531 182.765625 105.941406 182.824219 C 107.660156 182.960938 109.410156 183.070312 111.183594 183.15625 C 111.953125 183.199219 112.71875 183.242188 113.496094 183.269531 C 116.027344 183.367188 118.601562 183.433594 121.238281 183.433594 C 123.882812 183.433594 126.453125 183.367188 128.984375 183.269531 C 129.765625 183.242188 130.523438 183.199219 131.292969 183.15625 C 133.074219 183.070312 134.820312 182.960938 136.539062 182.824219 C 137.339844 182.765625 138.132812 182.703125 138.917969 182.628906 C 140.738281 182.464844 142.519531 182.273438 144.265625 182.058594 C 144.808594 181.992188 145.367188 181.9375 145.90625 181.867188 C 148.105469 181.578125 150.242188 181.253906 152.320312 180.898438 C 152.992188 180.78125 153.628906 180.648438 154.285156 180.527344 C 155.691406 180.265625 157.078125 179.996094 158.425781 179.703125 C 159.242188 179.527344 160.039062 179.347656 160.835938 179.160156 C 161.972656 178.898438 163.082031 178.617188 164.171875 178.332031 C 164.511719 178.242188 164.84375 178.152344 165.183594 178.066406 L 165.183594 136.074219 C 164.847656 135.984375 164.511719 135.894531 164.175781 135.804688 C 163.082031 135.519531 161.96875 135.242188 160.832031 134.972656 " fill-opacity="1" fill-rule="nonzero"/></g><path fill="#ffffff" d="M 258.265625 111.640625 C 259.074219 112.226562 260.125 112.816406 261.480469 113.433594 C 262.816406 114.003906 264.464844 114.429688 266.34375 114.683594 C 268.367188 114.976562 270.746094 115.0625 273.621094 114.964844 C 275.863281 114.851562 278.402344 114.554688 281.179688 114.082031 L 265.808594 99.453125 C 263.425781 100.347656 261.476562 101.300781 259.996094 102.300781 C 258.425781 103.355469 257.292969 104.457031 256.636719 105.578125 C 256.082031 106.625 255.914062 107.640625 256.148438 108.628906 C 256.402344 109.683594 257.113281 110.695312 258.265625 111.640625 " fill-opacity="1" fill-rule="nonzero"/><path fill="#ffffff" d="M 318.382812 127.925781 C 319.757812 126.808594 320.25 125.96875 320.417969 125.457031 C 320.628906 124.808594 320.644531 124.242188 320.457031 123.800781 C 320.226562 123.214844 319.964844 122.777344 319.644531 122.464844 L 319.640625 122.457031 C 317.105469 119.894531 314 118.253906 310.410156 117.574219 C 307.34375 116.980469 303.664062 116.914062 299.457031 117.375 L 313.445312 130.683594 C 315.632812 129.742188 317.292969 128.816406 318.382812 127.925781 " fill-opacity="1" fill-rule="nonzero"/><g clip-path="url(#id6)"><path fill="#ffffff" d="M 246.785156 103.894531 C 248.023438 101.964844 250.003906 100.050781 252.667969 98.226562 C 254.796875 96.738281 257.339844 95.375 260.242188 94.164062 L 257.722656 91.746094 C 256.21875 90.355469 256.460938 88.894531 257.1875 87.988281 C 257.84375 87.1875 258.804688 86.605469 260.132812 86.191406 C 261.222656 85.855469 262.476562 85.71875 263.949219 85.765625 C 265.503906 85.820312 266.84375 86.335938 267.820312 87.253906 L 271.65625 90.914062 C 277.980469 89.648438 284.039062 89.425781 289.667969 90.273438 C 295.683594 91.136719 300.644531 93.308594 304.417969 96.714844 L 304.683594 97.042969 C 305.359375 98.214844 305.234375 99.140625 305.015625 99.714844 C 304.644531 100.683594 303.753906 101.386719 302.296875 101.863281 C 299.847656 102.65625 297.742188 102.40625 296.039062 101.113281 C 295.066406 100.394531 293.902344 99.695312 292.582031 99.050781 C 291.191406 98.367188 289.589844 97.8125 287.828125 97.398438 C 285.980469 96.964844 283.957031 96.6875 281.804688 96.574219 C 280.480469 96.496094 279.105469 96.523438 277.683594 96.636719 L 293.328125 111.527344 C 298.601562 110.601562 302.992188 110.191406 306.726562 110.296875 C 310.691406 110.402344 314.117188 110.839844 316.90625 111.605469 C 319.796875 112.375 322.1875 113.429688 324.011719 114.742188 C 325.847656 116.035156 327.324219 117.273438 328.519531 118.53125 C 330.953125 121.273438 331.351562 124.574219 329.695312 128.121094 C 328.871094 129.796875 327.382812 131.324219 325.125 132.824219 C 323.496094 133.9375 321.492188 134.984375 319.054688 136.011719 L 321.921875 138.734375 C 323.445312 140.199219 323.101562 141.6875 322.277344 142.597656 C 321.578125 143.367188 320.59375 143.957031 319.359375 144.339844 C 318.394531 144.636719 317.414062 144.78125 316.375 144.78125 C 316.09375 144.78125 315.808594 144.769531 315.523438 144.75 C 314 144.636719 312.746094 144.117188 311.804688 143.210938 L 308.011719 139.605469 C 304.417969 140.542969 300.703125 141.269531 296.957031 141.765625 C 293.222656 142.253906 289.507812 142.453125 285.871094 142.359375 C 282.296875 142.253906 279.054688 141.8125 275.941406 141.015625 C 272.910156 140.253906 270.15625 139.089844 267.765625 137.550781 C 265.464844 136.378906 265.824219 134.933594 266.085938 134.351562 C 266.4375 133.460938 267.476562 132.8125 269.429688 132.332031 C 272.265625 131.597656 274.410156 131.648438 275.828125 132.859375 C 278.445312 134.273438 282.382812 135.261719 287.316406 135.640625 C 291.703125 135.953125 296.75 135.453125 302.308594 134.160156 L 287.210938 119.808594 C 279.230469 121.6875 271.992188 122.339844 265.6875 121.742188 C 259.082031 121.136719 253.566406 119.265625 249.304688 116.179688 C 247.015625 114.414062 245.679688 112.449219 245.308594 110.3125 C 244.902344 108.183594 245.398438 106.015625 246.785156 103.894531 Z M 196.023438 139.210938 C 196.082031 139.246094 196.144531 139.285156 196.203125 139.320312 C 200.53125 141.902344 205.695312 144.339844 211.605469 146.550781 C 211.796875 146.621094 211.980469 146.691406 212.167969 146.761719 C 214.046875 147.453125 215.996094 148.125 218.015625 148.769531 C 218.21875 148.835938 218.425781 148.898438 218.636719 148.960938 C 222.757812 150.253906 227.167969 151.441406 231.84375 152.5 C 232.136719 152.566406 232.425781 152.636719 232.722656 152.703125 C 234.957031 153.199219 237.253906 153.664062 239.605469 154.097656 C 240.003906 154.171875 240.410156 154.242188 240.8125 154.316406 C 243.195312 154.742188 245.621094 155.144531 248.113281 155.503906 C 248.382812 155.542969 248.65625 155.578125 248.925781 155.613281 C 251.363281 155.957031 253.84375 156.269531 256.378906 156.542969 C 256.652344 156.574219 256.917969 156.605469 257.195312 156.636719 C 259.785156 156.910156 262.433594 157.132812 265.117188 157.332031 C 265.628906 157.367188 266.136719 157.40625 266.652344 157.441406 C 269.316406 157.621094 272.023438 157.765625 274.777344 157.867188 C 275.246094 157.882812 275.714844 157.894531 276.183594 157.910156 C 279.085938 158 282.015625 158.0625 285.007812 158.0625 C 287.996094 158.0625 290.929688 158 293.824219 157.910156 C 294.292969 157.894531 294.765625 157.882812 295.230469 157.867188 C 297.988281 157.765625 300.691406 157.621094 303.359375 157.441406 C 303.871094 157.40625 304.378906 157.371094 304.890625 157.332031 C 307.578125 157.132812 310.222656 156.910156 312.808594 156.636719 C 313.085938 156.605469 313.347656 156.574219 313.625 156.542969 C 316.15625 156.269531 318.640625 155.957031 321.074219 155.613281 C 321.34375 155.578125 321.621094 155.542969 321.886719 155.503906 C 324.378906 155.144531 326.804688 154.742188 329.1875 154.316406 C 329.589844 154.242188 329.996094 154.171875 330.394531 154.097656 C 332.746094 153.664062 335.039062 153.199219 337.273438 152.703125 C 337.570312 152.636719 337.859375 152.566406 338.152344 152.5 C 342.828125 151.441406 347.234375 150.253906 351.359375 148.960938 C 351.5625 148.898438 351.773438 148.835938 351.976562 148.769531 C 354 148.125 355.945312 147.453125 357.820312 146.761719 C 358.011719 146.691406 358.195312 146.621094 358.382812 146.550781 C 364.292969 144.339844 369.453125 141.902344 373.78125 139.320312 C 373.839844 139.285156 373.902344 139.246094 373.960938 139.210938 C 379.816406 135.691406 384.117188 131.914062 386.632812 128.085938 L 386.632812 128.082031 C 388.339844 125.492188 389.253906 122.878906 389.253906 120.3125 C 389.253906 117.742188 388.335938 115.128906 386.632812 112.539062 C 384.109375 108.710938 379.8125 104.9375 373.953125 101.421875 C 373.894531 101.386719 373.835938 101.351562 373.773438 101.316406 C 369.449219 98.734375 364.289062 96.300781 358.378906 94.09375 C 358.191406 94.019531 358 93.953125 357.8125 93.878906 C 355.9375 93.1875 353.992188 92.519531 351.972656 91.875 C 351.765625 91.808594 351.558594 91.746094 351.351562 91.683594 C 347.226562 90.386719 342.820312 89.203125 338.144531 88.144531 C 337.851562 88.078125 337.566406 88.007812 337.273438 87.941406 C 335.039062 87.449219 332.746094 86.984375 330.398438 86.550781 C 329.992188 86.476562 329.585938 86.40625 329.179688 86.332031 C 326.796875 85.90625 324.375 85.503906 321.882812 85.144531 C 321.613281 85.109375 321.339844 85.074219 321.074219 85.035156 C 318.636719 84.695312 316.144531 84.382812 313.605469 84.105469 C 313.339844 84.078125 313.082031 84.042969 312.816406 84.019531 C 310.222656 83.746094 307.574219 83.515625 304.886719 83.320312 C 304.375 83.285156 303.871094 83.246094 303.359375 83.210938 C 300.691406 83.03125 297.984375 82.886719 295.230469 82.785156 C 294.765625 82.769531 294.289062 82.757812 293.820312 82.742188 C 290.925781 82.652344 287.992188 82.589844 285.007812 82.589844 C 282.019531 82.589844 279.089844 82.652344 276.191406 82.742188 C 275.71875 82.757812 275.246094 82.769531 274.777344 82.785156 C 272.023438 82.886719 269.316406 83.03125 266.652344 83.210938 C 266.136719 83.246094 265.632812 83.285156 265.121094 83.320312 C 262.433594 83.515625 259.78125 83.746094 257.1875 84.019531 C 256.921875 84.042969 256.667969 84.078125 256.402344 84.105469 C 253.859375 84.382812 251.367188 84.695312 248.925781 85.035156 C 248.660156 85.074219 248.386719 85.109375 248.117188 85.144531 C 245.625 85.503906 243.199219 85.90625 240.820312 86.332031 C 240.414062 86.40625 240.007812 86.476562 239.601562 86.550781 C 237.253906 86.984375 234.960938 87.449219 232.726562 87.941406 C 232.429688 88.007812 232.144531 88.078125 231.851562 88.144531 C 227.175781 89.203125 222.765625 90.386719 218.644531 91.683594 C 218.4375 91.746094 218.222656 91.808594 218.019531 91.875 C 216 92.519531 214.054688 93.1875 212.179688 93.878906 C 211.988281 93.949219 211.796875 94.019531 211.609375 94.09375 C 205.699219 96.304688 200.539062 98.734375 196.210938 101.316406 C 196.152344 101.351562 196.089844 101.386719 196.03125 101.421875 C 186.210938 107.316406 180.726562 113.941406 180.726562 120.3125 C 180.726562 126.6875 186.207031 133.316406 196.023438 139.210938 " fill-opacity="1" fill-rule="nonzero"/></g><g clip-path="url(#id7)"><path fill="#ffffff" d="M 245.257812 196.960938 C 245.257812 200.035156 242.765625 202.527344 239.695312 202.527344 C 236.621094 202.527344 234.128906 200.035156 234.128906 196.960938 L 234.128906 180.621094 C 234.128906 177.546875 236.621094 175.054688 239.695312 175.054688 C 242.765625 175.054688 245.257812 177.546875 245.257812 180.621094 Z M 224.15625 192.089844 C 224.15625 195.160156 221.664062 197.65625 218.589844 197.65625 C 215.519531 197.65625 213.027344 195.160156 213.027344 192.089844 L 213.027344 175.746094 C 213.027344 172.675781 215.519531 170.183594 218.589844 170.183594 C 221.664062 170.183594 224.15625 172.675781 224.15625 175.746094 Z M 202.382812 184.085938 C 202.382812 187.160156 199.890625 189.652344 196.816406 189.652344 C 193.742188 189.652344 191.253906 187.160156 191.253906 184.085938 L 191.253906 167.746094 C 191.253906 164.671875 193.742188 162.179688 196.816406 162.179688 C 199.890625 162.179688 202.382812 164.671875 202.382812 167.746094 Z M 180.726562 147.332031 L 180.726562 186.695312 C 192.429688 192.535156 230.402344 209.105469 284.195312 209.105469 C 337.976562 209.105469 377.152344 192.464844 389.253906 186.621094 L 389.253906 147.332031 C 369.027344 163.289062 330.8125 173.605469 285.007812 173.605469 C 239.1875 173.605469 200.953125 163.289062 180.726562 147.332031 " fill-opacity="1" fill-rule="nonzero"/></g><g clip-path="url(#id8)"><path fill="#ffffff" d="M 245.257812 247.523438 C 245.257812 250.597656 242.765625 253.089844 239.695312 253.089844 C 236.621094 253.089844 234.128906 250.597656 234.128906 247.523438 L 234.128906 231.1875 C 234.128906 228.113281 236.621094 225.617188 239.695312 225.617188 C 242.765625 225.617188 245.257812 228.113281 245.257812 231.1875 Z M 224.15625 242.65625 C 224.15625 245.726562 221.664062 248.21875 218.589844 248.21875 C 215.519531 248.21875 213.027344 245.726562 213.027344 242.65625 L 213.027344 226.3125 C 213.027344 223.242188 215.519531 220.746094 218.589844 220.746094 C 221.664062 220.746094 224.15625 223.242188 224.15625 226.3125 Z M 202.382812 234.652344 C 202.382812 237.726562 199.890625 240.21875 196.816406 240.21875 C 193.742188 240.21875 191.253906 237.726562 191.253906 234.652344 L 191.253906 218.3125 C 191.253906 215.238281 193.742188 212.746094 196.816406 212.746094 C 199.890625 212.746094 202.382812 215.238281 202.382812 218.3125 Z M 180.726562 203.910156 L 180.726562 237.621094 C 192.429688 243.460938 230.402344 260.035156 284.195312 260.035156 C 337.976562 260.035156 377.152344 243.390625 389.253906 237.546875 L 389.253906 203.734375 C 371.304688 211.527344 333.722656 224.648438 284.195312 224.648438 C 234.789062 224.648438 198.328125 211.753906 180.726562 203.910156 " fill-opacity="1" fill-rule="nonzero"/></g><g clip-path="url(#id9)"><path fill="#ffffff" d="M 245.257812 298.09375 C 245.257812 301.167969 242.765625 303.660156 239.695312 303.660156 C 236.621094 303.660156 234.128906 301.167969 234.128906 298.09375 L 234.128906 281.753906 C 234.128906 278.679688 236.621094 276.1875 239.695312 276.1875 C 242.765625 276.1875 245.257812 278.679688 245.257812 281.753906 Z M 224.15625 293.21875 C 224.15625 296.292969 221.664062 298.785156 218.589844 298.785156 C 215.519531 298.785156 213.027344 296.292969 213.027344 293.21875 L 213.027344 276.878906 C 213.027344 273.804688 215.519531 271.3125 218.589844 271.3125 C 221.664062 271.3125 224.15625 273.804688 224.15625 276.878906 Z M 202.382812 285.21875 C 202.382812 288.292969 199.890625 290.785156 196.816406 290.785156 C 193.742188 290.785156 191.253906 288.292969 191.253906 285.21875 L 191.253906 268.878906 C 191.253906 265.804688 193.742188 263.3125 196.816406 263.3125 C 199.890625 263.3125 202.382812 265.804688 202.382812 268.878906 Z M 180.726562 254.839844 L 180.726562 288.550781 C 192.429688 294.390625 230.398438 310.964844 284.195312 310.964844 C 337.976562 310.964844 377.152344 294.320312 389.253906 288.476562 L 389.253906 254.664062 C 371.304688 262.453125 333.722656 275.578125 284.195312 275.578125 C 234.789062 275.578125 198.328125 262.679688 180.726562 254.839844 " fill-opacity="1" fill-rule="nonzero"/></g><g clip-path="url(#id10)"><path fill="#ffffff" d="M 245.257812 348.65625 C 245.257812 351.730469 242.765625 354.226562 239.695312 354.226562 C 236.621094 354.226562 234.128906 351.730469 234.128906 348.65625 L 234.128906 332.316406 C 234.128906 329.246094 236.621094 326.753906 239.695312 326.753906 C 242.765625 326.753906 245.257812 329.246094 245.257812 332.316406 Z M 224.15625 343.785156 C 224.15625 346.859375 221.664062 349.351562 218.589844 349.351562 C 215.519531 349.351562 213.027344 346.859375 213.027344 343.785156 L 213.027344 327.445312 C 213.027344 324.371094 215.519531 321.878906 218.589844 321.878906 C 221.664062 321.878906 224.15625 324.371094 224.15625 327.445312 Z M 202.382812 335.785156 C 202.382812 338.859375 199.890625 341.351562 196.816406 341.351562 C 193.742188 341.351562 191.253906 338.859375 191.253906 335.785156 L 191.253906 319.445312 C 191.253906 316.371094 193.742188 313.878906 196.816406 313.878906 C 199.890625 313.878906 202.382812 316.371094 202.382812 319.445312 Z M 180.726562 305.769531 L 180.726562 327.476562 C 180.726562 345.332031 223.550781 365.226562 285.007812 365.226562 C 346.441406 365.226562 389.253906 345.332031 389.253906 327.476562 L 389.253906 305.597656 C 371.304688 313.382812 333.722656 326.507812 284.195312 326.507812 C 234.789062 326.507812 198.328125 313.609375 180.726562 305.769531 " fill-opacity="1" fill-rule="nonzero"/></g></svg>