<svg xmlns="http://www.w3.org/2000/svg" xmlns:xlink="http://www.w3.org/1999/xlink" width="500" zoomAndPan="magnify" viewBox="0 0 375 374.999991" height="500" preserveAspectRatio="xMidYMid meet" version="1.0"><defs><clipPath id="id1"><path d="M 85 98 L 287 98 L 287 273.949219 L 85 273.949219 Z M 85 98 " clip-rule="nonzero"/></clipPath><clipPath id="id2"><path d="M 85 98 L 287 98 L 287 273.945312 L 85 273.945312 Z M 85 98 " clip-rule="nonzero"/></clipPath><clipPath id="id3"><path d="M 189.097656 99.898438 L 285.886719 268.746094 C 286.503906 269.820312 286.5 271.144531 285.875 272.214844 C 285.253906 273.285156 284.105469 273.945312 282.863281 273.945312 L 89.375 273.945312 C 88.132812 273.945312 86.984375 273.285156 86.359375 272.214844 C 85.738281 271.144531 85.730469 269.820312 86.347656 268.746094 L 183.136719 99.898438 C 183.75 98.832031 184.886719 98.175781 186.117188 98.175781 C 187.351562 98.175781 188.488281 98.832031 189.097656 99.898438 " clip-rule="nonzero"/></clipPath><clipPath id="id4"><path d="M 136.257812 185.25 L 239 185.25 L 239 250.5 L 136.257812 250.5 Z M 136.257812 185.25 " clip-rule="nonzero"/></clipPath></defs><path fill="#000000" d="M 283.421875 212.257812 L 238.835938 212.257812 C 234.144531 212.257812 234.144531 205.113281 238.835938 205.113281 L 283.421875 205.113281 C 309.167969 205.113281 330.117188 184.125 330.117188 158.324219 C 330.117188 139.175781 318.671875 122.148438 300.964844 114.949219 C 299.863281 114.503906 299.058594 113.535156 298.8125 112.371094 C 292.574219 82.535156 259.480469 66.425781 232.105469 80.238281 C 230.105469 81.246094 227.683594 80.183594 227.066406 78.03125 C 214.632812 34.65625 153.546875 32.480469 138.21875 75.09375 C 136.421875 80.085938 131.683594 75.242188 120.085938 75.242188 C 98.304688 75.242188 79.613281 90.0625 74.632812 111.28125 C 74.351562 112.492188 73.457031 113.46875 72.273438 113.859375 C 53.046875 120.171875 40.128906 138.046875 40.128906 158.328125 C 40.128906 184.128906 61.078125 205.117188 86.824219 205.117188 L 131.414062 205.117188 C 136.105469 205.117188 136.105469 212.261719 131.414062 212.261719 L 86.828125 212.261719 C 57.152344 212.261719 33.003906 188.066406 33.003906 158.324219 C 33.003906 135.609375 47.058594 115.515625 68.183594 107.714844 C 75.914062 79.40625 104.542969 62.796875 132.726562 69.589844 C 151.90625 24.996094 215.800781 26.796875 232.636719 72.136719 C 262.792969 59.644531 297.507812 77.148438 305.371094 109.066406 C 324.800781 117.75 337.25 136.882812 337.25 158.328125 C 337.25 188.0625 313.101562 212.257812 283.421875 212.257812 Z M 283.421875 212.257812 " fill-opacity="1" fill-rule="evenodd"/><path fill="#000000" d="M 267.707031 269.03125 L 102.59375 269.03125 C 99.941406 269.03125 98.210938 266.203125 99.414062 263.835938 L 181.949219 101.265625 C 183.265625 98.671875 186.984375 98.671875 188.300781 101.265625 L 270.589844 263.355469 C 272.460938 266.40625 270.121094 269.03125 267.707031 269.03125 Z M 108.40625 261.878906 L 261.84375 261.878906 L 185.125 110.765625 Z M 108.40625 261.878906 " fill-opacity="1" fill-rule="evenodd"/><path fill="#000000" d="M 190.136719 218.757812 C 183.589844 218.757812 176.78125 220.09375 176.550781 215.355469 L 173.578125 153.328125 C 173.480469 151.296875 175.109375 149.582031 177.140625 149.582031 L 193.109375 149.582031 C 195.140625 149.582031 196.765625 151.292969 196.671875 153.328125 L 193.699219 215.355469 C 193.609375 217.261719 192.042969 218.757812 190.136719 218.757812 Z M 183.511719 211.609375 L 186.738281 211.609375 L 189.371094 156.734375 L 180.882812 156.734375 Z M 183.511719 211.609375 " fill-opacity="1" fill-rule="evenodd"/><path fill="#000000" d="M 185.125 246.816406 C 171.636719 246.816406 171.636719 226.269531 185.125 226.269531 C 198.621094 226.269531 198.621094 246.816406 185.125 246.816406 Z M 185.125 233.421875 C 181.019531 233.421875 181.019531 239.671875 185.125 239.671875 C 189.234375 239.671875 189.234375 233.421875 185.125 233.421875 Z M 185.125 233.421875 " fill-opacity="1" fill-rule="evenodd"/><path fill="#000000" d="M 54.351562 267.800781 C 87.28125 308.605469 43.542969 321.820312 37.015625 299.617188 C 34.925781 292.503906 37.152344 281.714844 48.644531 267.5625 L 48.636719 267.554688 C 50.148438 265.695312 53.027344 265.851562 54.351562 267.800781 Z M 58.964844 297.605469 C 60.320312 292.984375 58.769531 285.734375 51.402344 275.632812 C 30.988281 303.617188 55.628906 308.949219 58.964844 297.605469 Z M 58.964844 297.605469 " fill-opacity="1" fill-rule="nonzero"/><path fill="#000000" d="M 83.5 220.90625 C 116.429688 261.707031 72.691406 274.921875 66.164062 252.71875 C 64.074219 245.609375 66.300781 234.820312 77.792969 220.667969 L 77.789062 220.660156 C 79.300781 218.796875 82.175781 218.953125 83.503906 220.90625 Z M 88.113281 250.710938 C 89.472656 246.089844 87.917969 238.839844 80.550781 228.738281 C 60.136719 256.71875 84.777344 262.054688 88.113281 250.710938 Z M 88.113281 250.710938 " fill-opacity="1" fill-rule="nonzero"/><path fill="#000000" d="M 277.253906 274.734375 C 310.183594 315.539062 266.445312 328.753906 259.921875 306.550781 C 257.828125 299.4375 260.054688 288.648438 271.550781 274.496094 L 271.542969 274.488281 C 273.054688 272.628906 275.929688 272.785156 277.257812 274.734375 Z M 281.867188 304.539062 C 283.226562 299.917969 281.671875 292.667969 274.304688 282.566406 C 253.890625 310.550781 278.53125 315.882812 281.867188 304.539062 Z M 281.867188 304.539062 " fill-opacity="1" fill-rule="nonzero"/><path fill="#000000" d="M 310.800781 231.484375 C 343.730469 272.289062 299.992188 285.503906 293.464844 263.300781 C 291.375 256.1875 293.601562 245.398438 305.09375 231.246094 L 305.085938 231.238281 C 306.597656 229.378906 309.476562 229.535156 310.804688 231.484375 Z M 315.414062 261.289062 C 316.773438 256.667969 315.21875 249.417969 307.851562 239.316406 C 287.4375 267.300781 312.078125 272.632812 315.414062 261.289062 Z M 315.414062 261.289062 " fill-opacity="1" fill-rule="nonzero"/><path fill="#31899d" d="M 241.019531 205.113281 L 283.421875 205.113281 C 309.167969 205.113281 330.117188 184.125 330.117188 158.324219 C 330.117188 139.175781 318.671875 122.148438 300.964844 114.949219 C 299.863281 114.503906 299.058594 113.535156 298.8125 112.371094 C 292.574219 82.535156 259.480469 66.425781 232.105469 80.238281 C 230.105469 81.246094 227.683594 80.183594 227.066406 78.03125 C 214.632812 34.65625 153.546875 32.480469 138.21875 75.09375 C 136.421875 80.085938 131.683594 75.242188 120.085938 75.242188 C 98.304688 75.242188 79.613281 90.0625 74.632812 111.28125 C 74.351562 112.492188 73.457031 113.46875 72.273438 113.859375 C 53.046875 120.171875 40.128906 138.046875 40.128906 158.328125 C 40.128906 184.128906 61.078125 205.117188 86.824219 205.117188 L 129.222656 205.117188 L 181.945312 101.265625 C 183.265625 98.671875 186.984375 98.671875 188.300781 101.265625 Z M 241.019531 205.113281 " fill-opacity="1" fill-rule="evenodd"/><path fill="#ffffff" d="M 261.84375 261.878906 L 185.125 110.765625 L 108.40625 261.878906 Z M 185.125 226.269531 C 198.621094 226.269531 198.621094 246.816406 185.125 246.816406 C 171.636719 246.816406 171.636719 226.269531 185.125 226.269531 Z M 190.136719 218.753906 C 183.589844 218.753906 176.78125 220.09375 176.550781 215.355469 L 173.578125 153.328125 C 173.480469 151.292969 175.109375 149.582031 177.140625 149.582031 L 193.109375 149.582031 C 195.140625 149.582031 196.765625 151.292969 196.671875 153.328125 L 193.699219 215.355469 C 193.609375 217.257812 192.042969 218.753906 190.136719 218.753906 Z M 190.136719 218.753906 " fill-opacity="1" fill-rule="evenodd"/><path fill="#000000" d="M 186.738281 211.609375 L 189.371094 156.730469 L 180.882812 156.730469 L 183.511719 211.609375 Z M 186.738281 211.609375 " fill-opacity="1" fill-rule="evenodd"/><path fill="#000000" d="M 185.125 239.671875 C 189.234375 239.671875 189.234375 233.417969 185.125 233.417969 C 181.019531 233.417969 181.019531 239.671875 185.125 239.671875 Z M 185.125 239.671875 " fill-opacity="1" fill-rule="evenodd"/><path fill="#31899d" d="M 307.851562 239.316406 C 287.4375 267.300781 312.078125 272.632812 315.414062 261.289062 C 316.773438 256.667969 315.21875 249.417969 307.851562 239.316406 Z M 307.851562 239.316406 " fill-opacity="1" fill-rule="evenodd"/><path fill="#31899d" d="M 281.867188 304.539062 C 283.226562 299.917969 281.671875 292.667969 274.304688 282.566406 C 253.890625 310.550781 278.53125 315.882812 281.867188 304.539062 Z M 281.867188 304.539062 " fill-opacity="1" fill-rule="evenodd"/><path fill="#31899d" d="M 88.113281 250.710938 C 89.472656 246.089844 87.917969 238.839844 80.550781 228.738281 C 60.136719 256.71875 84.777344 262.054688 88.113281 250.710938 Z M 88.113281 250.710938 " fill-opacity="1" fill-rule="evenodd"/><path fill="#31899d" d="M 58.964844 297.605469 C 60.320312 292.984375 58.769531 285.734375 51.402344 275.632812 C 30.988281 303.617188 55.628906 308.949219 58.964844 297.605469 Z M 58.964844 297.605469 " fill-opacity="1" fill-rule="evenodd"/><g clip-path="url(#id1)"><path fill="#ffffff" d="M 189.097656 99.898438 L 285.886719 268.746094 C 286.503906 269.820312 286.5 271.144531 285.875 272.214844 C 285.253906 273.285156 284.105469 273.945312 282.863281 273.945312 L 89.375 273.945312 C 88.132812 273.945312 86.984375 273.285156 86.359375 272.214844 C 85.738281 271.144531 85.730469 269.820312 86.347656 268.746094 L 183.136719 99.898438 C 183.75 98.832031 184.886719 98.175781 186.117188 98.175781 C 187.351562 98.175781 188.488281 98.832031 189.097656 99.898438 " fill-opacity="1" fill-rule="nonzero"/></g><g clip-path="url(#id2)"><g clip-path="url(#id3)"><path stroke-linecap="butt" transform="matrix(0.750899, 0, 0, 0.748532, 83.368535, 94.699674)" fill="none" stroke-linejoin="miter" d="M 140.803356 6.945281 L 269.700906 232.517054 C 270.522838 233.952155 270.517636 235.721243 269.6853 237.151126 C 268.858167 238.581008 267.32875 239.462943 265.674484 239.462943 L 7.99903 239.462943 C 6.344763 239.462943 4.815347 238.581008 3.983011 237.151126 C 3.155878 235.721243 3.145474 233.952155 3.967405 232.517054 L 132.864956 6.945281 C 133.681685 5.520617 135.195495 4.643901 136.834156 4.643901 C 138.478018 4.643901 139.991828 5.520617 140.803356 6.945281 " stroke="#000000" stroke-width="14" stroke-opacity="1" stroke-miterlimit="4"/></g></g><g clip-path="url(#id4)"><path fill="#000000" d="M 197.972656 185.363281 C 196.945312 185.324219 195.949219 185.347656 195.046875 185.394531 C 193.882812 185.332031 188.59375 185.3125 175.996094 189.609375 C 163.171875 194.007812 159.109375 197.285156 158.332031 197.976562 C 155.675781 200.042969 151.738281 203.125 151.125 207.5625 C 150.753906 210.128906 150.273438 229.132812 150.085938 236.449219 C 147.535156 237.796875 144.527344 238.339844 142.5 238.339844 C 141.234375 238.339844 140.140625 238.210938 139.089844 238.023438 C 138.820312 237.972656 138.550781 237.972656 138.285156 238.027344 C 138.015625 238.082031 137.769531 238.1875 137.542969 238.339844 C 137.316406 238.496094 137.128906 238.683594 136.980469 238.914062 C 136.832031 239.140625 136.734375 239.390625 136.683594 239.65625 C 136.636719 239.925781 136.640625 240.191406 136.703125 240.457031 C 136.761719 240.722656 136.871094 240.964844 137.03125 241.1875 C 137.1875 241.410156 137.382812 241.589844 137.617188 241.734375 C 137.847656 241.878906 138.101562 241.972656 138.371094 242.015625 C 139.585938 242.230469 140.945312 242.394531 142.5 242.394531 C 145.691406 242.394531 150.105469 241.296875 153.808594 238.578125 C 157.515625 241.292969 161.925781 242.394531 165.121094 242.394531 C 168.3125 242.394531 172.71875 241.296875 176.421875 238.582031 C 180.128906 241.300781 184.542969 242.394531 187.738281 242.394531 C 190.929688 242.394531 195.339844 241.296875 199.042969 238.582031 C 202.75 241.300781 207.160156 242.394531 210.355469 242.394531 C 213.546875 242.394531 217.960938 241.292969 221.664062 238.578125 C 225.371094 241.296875 229.78125 242.394531 232.976562 242.394531 C 234.773438 242.394531 236.289062 242.042969 237.519531 241.539062 C 237.773438 241.4375 237.992188 241.292969 238.183594 241.101562 C 238.375 240.910156 238.523438 240.691406 238.628906 240.445312 C 238.734375 240.195312 238.785156 239.9375 238.785156 239.667969 C 238.785156 239.402344 238.734375 239.140625 238.632812 238.894531 C 238.527344 238.644531 238.382812 238.425781 238.191406 238.234375 C 238 238.042969 237.777344 237.898438 237.527344 237.792969 C 237.277344 237.691406 237.019531 237.640625 236.746094 237.640625 C 236.476562 237.636719 236.214844 237.6875 235.964844 237.792969 C 235.179688 238.113281 234.257812 238.339844 232.976562 238.339844 C 231.199219 238.339844 228.6875 237.914062 226.378906 236.910156 C 227.753906 236.351562 229.125 235.789062 230.503906 235.230469 C 230.773438 235.140625 232.449219 234.558594 233.230469 232.777344 C 233.90625 231.234375 233.453125 229.832031 233.335938 229.515625 C 233.261719 229.292969 233.132812 228.929688 233.058594 228.707031 C 232.527344 227.175781 231.992188 225.644531 231.457031 224.117188 L 227.679688 213.277344 L 227.429688 212.992188 C 227.042969 212.503906 221.773438 206.226562 216.566406 200.105469 C 216.527344 200.042969 216.488281 200.003906 216.449219 199.941406 C 212.140625 194.855469 207.910156 189.910156 206.644531 188.511719 C 204.453125 186.15625 201.058594 185.476562 197.972656 185.363281 Z M 196.875 189.449219 C 199.019531 189.441406 202.136719 189.695312 203.621094 191.308594 C 204.785156 192.5625 208.605469 197.046875 212.648438 201.808594 L 212.648438 201.828125 L 212.933594 202.152344 C 212.996094 202.210938 213.054688 202.292969 213.117188 202.371094 C 213.21875 202.472656 213.324219 202.597656 213.425781 202.71875 C 214.34375 203.8125 215.527344 205.476562 215.160156 206.875 C 214.792969 208.292969 212.753906 209.707031 209.445312 210.824219 L 162.828125 226.792969 C 159.519531 227.925781 156.921875 227.925781 155.757812 227.035156 C 154.371094 226 154.515625 223.265625 154.574219 221.949219 L 154.59375 221.519531 C 154.820312 214.832031 155.027344 209.28125 155.1875 208.148438 C 155.597656 205.332031 158.804688 202.839844 160.949219 201.179688 L 161.113281 201.054688 C 161.132812 201.015625 164.621094 197.851562 177.34375 193.496094 C 190.085938 189.160156 194.785156 189.507812 194.804688 189.507812 L 195.152344 189.507812 C 195.554688 189.484375 196.160156 189.453125 196.875 189.449219 Z M 226.023438 197.140625 C 224.863281 197.097656 223.554688 197.292969 222.082031 197.792969 L 220.46875 198.359375 C 223.796875 202.292969 227.082031 206.183594 228.984375 208.433594 C 233.230469 206.609375 233.046875 203.710938 232.476562 202.046875 C 231.601562 199.527344 229.5 197.265625 226.023438 197.140625 Z M 217.65625 217.078125 C 219.257812 217.1875 220.71875 218.226562 221.285156 219.839844 C 222.164062 222.390625 220.796875 224.214844 218.980469 226.261719 C 216.285156 229.320312 215.585938 230.5 212.320312 231.613281 C 209.113281 232.726562 205.601562 231.003906 204.480469 227.78125 C 203.355469 224.539062 205.054688 221.054688 208.28125 219.941406 C 210.035156 219.355469 214.566406 217.792969 216.035156 217.285156 C 216.574219 217.105469 217.121094 217.039062 217.65625 217.078125 Z M 146.960938 222.027344 L 145.429688 222.554688 C 139.570312 224.558594 138.730469 228.875 139.894531 232.257812 C 140.464844 233.898438 142.121094 236.292969 146.613281 235.140625 C 146.695312 231.472656 146.820312 226.707031 146.960938 222.027344 Z M 171.667969 232.910156 C 173.105469 232.972656 174.472656 233.546875 175.535156 234.496094 C 175.355469 234.582031 175.191406 234.691406 175.042969 234.828125 C 172.257812 237.375 167.824219 238.339844 165.121094 238.339844 C 163.644531 238.339844 161.660156 238.039062 159.703125 237.363281 C 160.175781 236.710938 160.835938 236.179688 161.664062 235.886719 C 163.132812 235.402344 167.664062 233.84375 169.417969 233.234375 C 170.164062 232.984375 170.925781 232.878906 171.667969 232.910156 Z M 176.519531 242.394531 C 175.949219 242.371094 175.457031 242.550781 175.042969 242.933594 C 172.257812 245.480469 167.824219 246.445312 165.121094 246.445312 C 162.414062 246.445312 157.976562 245.480469 155.191406 242.933594 C 154.769531 242.546875 154.273438 242.367188 153.699219 242.398438 C 153.210938 242.425781 152.785156 242.601562 152.425781 242.933594 C 149.640625 245.480469 145.203125 246.445312 142.5 246.445312 C 141.234375 246.445312 140.140625 246.316406 139.089844 246.128906 C 138.820312 246.078125 138.550781 246.078125 138.285156 246.132812 C 138.015625 246.1875 137.769531 246.292969 137.542969 246.445312 C 137.316406 246.601562 137.128906 246.789062 136.980469 247.019531 C 136.832031 247.246094 136.734375 247.496094 136.683594 247.761719 C 136.636719 248.03125 136.640625 248.296875 136.703125 248.5625 C 136.761719 248.828125 136.871094 249.070312 137.03125 249.292969 C 137.1875 249.515625 137.382812 249.695312 137.617188 249.839844 C 137.847656 249.984375 138.101562 250.078125 138.371094 250.121094 C 139.585938 250.335938 140.945312 250.5 142.5 250.5 C 145.691406 250.5 150.105469 249.402344 153.808594 246.683594 C 157.515625 249.402344 161.925781 250.5 165.121094 250.5 C 168.3125 250.5 172.71875 249.402344 176.421875 246.6875 C 180.128906 249.40625 184.542969 250.5 187.738281 250.5 C 190.929688 250.5 195.339844 249.402344 199.042969 246.6875 C 202.75 249.40625 207.160156 250.5 210.355469 250.5 C 213.546875 250.5 217.960938 249.402344 221.664062 246.683594 C 225.371094 249.402344 229.78125 250.5 232.976562 250.5 C 234.773438 250.5 236.289062 250.148438 237.519531 249.644531 C 237.773438 249.542969 237.992188 249.398438 238.183594 249.207031 C 238.375 249.015625 238.523438 248.796875 238.628906 248.550781 C 238.734375 248.300781 238.785156 248.042969 238.785156 247.773438 C 238.785156 247.507812 238.734375 247.246094 238.632812 247 C 238.527344 246.75 238.382812 246.53125 238.191406 246.339844 C 238 246.152344 237.777344 246.003906 237.527344 245.898438 C 237.277344 245.796875 237.019531 245.746094 236.746094 245.746094 C 236.476562 245.742188 236.214844 245.792969 235.964844 245.898438 C 235.179688 246.21875 234.257812 246.445312 232.976562 246.445312 C 230.269531 246.445312 225.832031 245.480469 223.046875 242.933594 C 222.859375 242.761719 222.644531 242.628906 222.40625 242.535156 C 222.167969 242.441406 221.921875 242.394531 221.664062 242.394531 C 221.40625 242.394531 221.160156 242.441406 220.921875 242.535156 C 220.683594 242.628906 220.46875 242.761719 220.28125 242.933594 C 217.496094 245.480469 213.058594 246.445312 210.355469 246.445312 C 207.648438 246.445312 203.214844 245.476562 200.425781 242.929688 C 200.238281 242.757812 200.023438 242.625 199.785156 242.53125 C 199.546875 242.441406 199.300781 242.394531 199.042969 242.394531 C 198.785156 242.394531 198.539062 242.441406 198.300781 242.535156 C 198.0625 242.628906 197.847656 242.761719 197.660156 242.933594 C 194.875 245.480469 190.441406 246.445312 187.738281 246.445312 C 185.03125 246.445312 180.597656 245.476562 177.808594 242.929688 C 177.445312 242.59375 177.015625 242.417969 176.519531 242.394531 Z M 176.519531 242.394531 " fill-opacity="1" fill-rule="nonzero"/></g></svg>