<?xml version="1.0" encoding="utf-8"?>
<!-- Generator: Adobe Illustrator 26.3.1, SVG Export Plug-In . SVG Version: 6.00 Build 0)  -->
<svg version="1.1" id="Layer_1" xmlns="http://www.w3.org/2000/svg" xmlns:xlink="http://www.w3.org/1999/xlink" x="0px" y="0px"
	 viewBox="0 0 500 500" style="enable-background:new 0 0 500 500;" xml:space="preserve">
<style type="text/css">
	.st0{fill:none;stroke:#000000;stroke-width:4;stroke-miterlimit:10;}
	.st1{fill:#FFFFFF;}
	.st2{clip-path:url(#SVGID_00000119102236236108313310000003098139740837284526_);}
	.st3{clip-path:url(#SVGID_00000083074857989535739210000004551675934484933776_);}
	.st4{fill:#31899D;stroke:#000000;stroke-width:4;stroke-miterlimit:10;}
</style>
<rect x="29.4" y="129.4" class="st0" width="440.6" height="322.6"/>
<path class="st1" d="M303.1,358.8c-4.9-6.4-8.4-13.9-10.2-22.1c-2.9-14,0.5-28.3,9.3-39.3c8.3-10.3,20.1-16.1,33.1-16.2
	c0.1,0,0.3,0,0.4,0c5.5,0,10.8,1,15.8,2.9c0.5-0.4,0.9-1,1.1-1.5c0.4-1.2,0-2.4-1-3.2c-7.7-5.7-16.8-8.7-26.3-8.7
	c-0.1,0-0.3,0-0.4,0c-13,0.1-24.8,5.9-33.1,16.2c-6.5,8.1-10.2,18.3-10.3,28.7c-0.1,4.9,1,9.6,1.8,14.4c0.8,5.1,2.7,10,5.5,14.3
	c1.9,2.8,4.1,5.4,6.7,7.6C297.9,354,301.3,356.4,303.1,358.8"/>
<path class="st1" d="M254.9,194.8c5.3-0.7,10.2,3.7,13.6,7.2c3.4,3.5,6.9,7.1,13.5,7.6c0.2-3.4,0.5-6.7,0.9-10
	c-2.1,1.1-4.6,1.8-7.8,1.8c-7.5,0-11.3-3.9-14.9-7.7c-3.3-3.4-6.4-6.6-12.4-7v10.3C250,196,252.3,195.1,254.9,194.8"/>
<path class="st1" d="M432.5,196.5c-0.9-0.9-1.8-1.8-2.7-2.7c-3.5-3.6-6.8-7-13.4-7.1c-6.6,0-9.9,3.5-13.4,7.1
	c-3.6,3.8-7.4,7.7-14.9,7.7c-7.5,0-11.3-3.9-14.9-7.7c-3.5-3.6-6.7-7-13.4-7.1c-6.6,0-9.9,3.5-13.4,7.1c-3.6,3.8-7.4,7.7-14.9,7.7
	c-7.5,0-11.3-3.9-14.9-7.7c-3.5-3.6-6.7-7-13.4-7.1c-6.6,0-9.9,3.5-13.4,7.1c-1.5,1.6-3.1,3.2-4.9,4.5c-0.6,3.7-0.9,7.6-1.1,11.4
	c6-0.2,10.1-3.4,14.2-7.7c3.5-3.6,6.7-7,13.4-7.1c6.6,0,9.9,3.5,13.4,7.1c3.6,3.8,7.4,7.7,14.9,7.7c7.5,0,11.3-3.9,14.9-7.7
	c3.5-3.6,6.7-7,13.4-7.1c6.6,0,9.9,3.5,13.4,7.1c3.6,3.8,7.3,7.7,14.9,7.7c7.5,0,11.3-3.9,14.9-7.7c3.5-3.6,6.8-7,13.4-7.1
	c3.1,0,5.5,0.8,7.5,2C432.2,196.8,432.3,196.6,432.5,196.5"/>
<g>
	<defs>
		<rect id="SVGID_1_" x="50" y="186.5" width="159.2" height="206.8"/>
	</defs>
	<clipPath id="SVGID_00000028288764373368322250000000474692451874185613_">
		<use xlink:href="#SVGID_1_"  style="overflow:visible;"/>
	</clipPath>
	<g style="clip-path:url(#SVGID_00000028288764373368322250000000474692451874185613_);">
		<path class="st1" d="M208.5,198.3c-1.8-1.3-3.4-2.9-4.9-4.5c-3.5-3.6-6.7-7-13.4-7.1c-6.6,0-9.9,3.5-13.4,7.1
			c-3.6,3.8-7.3,7.7-14.9,7.7c-7.5,0-11.3-3.9-14.9-7.7c-3.5-3.6-6.7-7-13.4-7.1c-6.6,0-9.9,3.5-13.4,7.1c-3.6,3.8-7.3,7.7-14.9,7.7
			c-7.5,0-11.3-3.9-14.9-7.7c-3.5-3.6-6.7-7-13.4-7.1c-6.6,0-9.9,3.5-13.4,7.1c-1.8,1.9-3.6,3.8-5.9,5.2c-4.9,3.1-7.9,8.9-7.9,15.2
			v160c0,3.5,0.5,6.9,1.6,10.2c0.6,1.7,2.4,8.1,4.7,8c0.5,0,0.9-0.3,1.2-0.7c0.3-0.4,0.4-0.8,0.5-1.3c1-3.7,0.2-7.7,0.2-11.6
			c0-4.5,0-8.9,0-13.4c0-6.8,0-13.7,0-20.5c0-8.3,0-16.7,0-25c0-8.9,0-17.9,0-26.8c0-8.6,0-17.2,0-25.8c0-7.4,0-14.8,0-22.2
			c0-5.3,0-10.5,0-15.8c0-2.2,0-4.5,0-6.7c0-6.3,3-12.2,7.9-15.2c2.3-1.5,4.1-3.4,5.9-5.2c3.5-3.6,6.7-7,13.4-7.1
			c6.6,0,9.9,3.5,13.4,7.1c3.6,3.8,7.3,7.7,14.9,7.7c7.5,0,11.3-3.9,14.9-7.7c3.5-3.6,6.7-7,13.4-7.1c6.6,0,9.9,3.5,13.4,7.1
			c3.6,3.8,7.4,7.7,14.9,7.7c7.5,0,11.3-3.9,14.9-7.7c3.5-3.6,6.7-7,13.4-7.1c4.6,0,7.6,1.7,10.1,3.9
			C208.6,198.7,208.6,198.5,208.5,198.3"/>
	</g>
</g>
<path class="st1" d="M211.9,202c3.9,4.1,9.1,7.7,14.9,7.7c7.5,0,11.3-3.9,14.9-7.7c1.3-1.3,2.7-2.5,4.1-3.6v-11.6
	c-5.9,0.4-9.1,3.6-12.4,7c-3.6,3.8-7.4,7.7-14.9,7.7c-3.2,0-5.7-0.7-7.8-1.8c0.1,0.5,0.1,0.9,0.2,1.4
	C211.3,201.4,211.6,201.7,211.9,202"/>
<g>
	<defs>
		<rect id="SVGID_00000080916439650150519330000005163202812095617411_" x="11" y="28.8" width="467" height="355.9"/>
	</defs>
	<clipPath id="SVGID_00000031165756080484097200000007495607499726175654_">
		<use xlink:href="#SVGID_00000080916439650150519330000005163202812095617411_"  style="overflow:visible;"/>
	</clipPath>
	<g style="clip-path:url(#SVGID_00000031165756080484097200000007495607499726175654_);">
		<path class="st4" d="M65.9,376.8c122.4,0,244.7,0,367.1,0c12.5,0.2,25.1,0.5,37.6,0.7c-0.2-16.9-0.4-33.7-0.7-50.6V85
			c0-9.5-3.4-18.3-8.9-22.9c-2.6-2.2-4.7-5.1-6.6-7.9c-3.9-5.5-7.6-10.7-15-10.7c-7.4,0-11.1,5.2-15,10.7
			c-4.1,5.7-8.2,11.6-16.7,11.7c-8.4,0-12.6-5.9-16.7-11.7c-3.9-5.5-7.6-10.7-15-10.7c-7.4,0-11.1,5.2-15,10.7
			c-4,5.7-8.2,11.6-16.7,11.7c-8.4,0-12.6-5.9-16.7-11.7c-3.9-5.5-7.6-10.7-15-10.7c-7.4,0-11.1,5.2-15,10.7
			c-1.7,2.4-13.1,11.6-16.7,11.7c-8.4,0-12.6-5.9-16.7-11.7c-3.7-5.2-7.2-10-13.8-10.6h-2.3c-6.6,0.6-10.2,5.4-13.8,10.6
			c-4.1,5.7-8.2,11.6-16.7,11.7c-3.6,0-15-9.3-16.7-11.7c-3.9-5.5-7.6-10.7-15-10.7c-7.4,0-11.1,5.2-15,10.7
			c-4,5.7-8.2,11.6-16.7,11.7c-8.4,0-12.6-5.9-16.7-11.7c-3.9-5.5-7.6-10.7-15-10.7c-7.4,0-11.1,5.2-15,10.7
			c-4,5.7-8.2,11.6-16.7,11.7c-8.4,0-12.6-5.9-16.7-11.7c-3.9-5.5-7.6-10.7-15-10.7c-7.4,0-11.1,5.2-15,10.7c-2,2.8-4,5.7-6.6,7.9
			C32.4,66.7,29,75.5,29,85c0,80.6,0,161.3,0,241.9c0.4,16.6,0.9,33.2,1.3,49.8C42.2,376.7,54.1,376.8,65.9,376.8z"/>
	</g>
	<path style="clip-path:url(#SVGID_00000031165756080484097200000007495607499726175654_);" d="M193.7,48.7"/>
</g>
<path class="st1" d="M165.9,284.6c-0.4,0.5-0.6,1.1-0.6,1.8c0,2.9,3.4,4.8,5.2,6.5c5.1,4.7,8,11.2,8.1,18.1
	c0.3,16.7-14.1,28.6-30.2,28.9c-7.8,0.1-16.7-2.5-18.8-11c-0.9-3.5,3.2-2,5.4-1.9c1.8,0.1,3.6,0.3,5.3,0.3c3.4,0,6.8-0.3,10-1.5
	c5-1.8,9.7-5,12.5-9.6c4.7-7.6,2.6-23.9-7.9-26.1c-0.3-0.1-1,0.7-1.8,0.6c-1.8-0.3-4-1.6-5.8-2.3c-2.7-1.2-9.1-3.6-8-7.7
	c0.5-1.7,1.9-2.9,3.4-3.9c7.3-4.9,16.5-6.7,25.3-6c7.7,0.6,15.2,3.1,21.9,6.6c2.6,1.4,4.4,3.9,6.4,6.2c1.2,1.4,2.4,2.9,3.4,4.4
	c0.7,1.1,1.6,3.8,2.7,4.5c-6.2-4.4-13.4-7.4-20.8-8.8C179,283.4,168.5,281.2,165.9,284.6"/>
<path d="M246.8,348.2c-1.7,0-3.1-1.3-3.1-2.8v-274c0-1.6,1.4-2.8,3.1-2.8c1.7,0,3.1,1.3,3.1,2.8v274
	C249.9,347,248.5,348.2,246.8,348.2"/>
<path d="M272.8,100.7c-0.8,0-1.6-0.3-2.2-0.9L246.8,76L223,99.8c-1.2,1.2-3.2,1.2-4.4,0c-1.2-1.2-1.2-3.2,0-4.4l26-26
	c1.2-1.2,3.2-1.2,4.4,0l26,26c1.2,1.2,1.2,3.2,0,4.4C274.4,100.4,273.6,100.7,272.8,100.7"/>
<path d="M291.6,265.7c-1.2,0-2.4-0.7-2.8-1.9c-6.1-14.7-9.1-30.2-9.1-46.2c0-66.9,54.4-121.2,121.3-121.2c1.7,0,3.1,1.4,3.1,3.1
	c0,1.7-1.4,3.1-3.1,3.1c-63.5,0-115.1,51.6-115.1,115.1c0,15.2,2.9,29.9,8.7,43.9c0.6,1.6-0.1,3.4-1.7,4
	C292.4,265.6,292,265.7,291.6,265.7"/>
<path d="M380.2,132.7c-0.6,0-1.2-0.2-1.7-0.5c-1.4-1-1.8-2.9-0.8-4.3l19.1-27.7l-27.7-19c-1.4-1-1.8-2.9-0.8-4.3
	c1-1.4,2.9-1.8,4.3-0.8l30.2,20.8c1.4,1,1.8,2.9,0.8,4.3l-20.8,30.2C382.1,132.2,381.1,132.7,380.2,132.7"/>
<path d="M202,265.7c-0.4,0-0.8-0.1-1.2-0.2c-1.6-0.6-2.3-2.4-1.7-4c5.8-13.9,8.7-28.7,8.7-43.9c0-63.5-51.7-115.1-115.1-115.1
	c-1.7,0-3.1-1.4-3.1-3.1c0-1.7,1.4-3.1,3.1-3.1c66.9,0,121.3,54.4,121.3,121.2c0,16-3.1,31.6-9.1,46.2
	C204.3,265,203.2,265.7,202,265.7"/>
<path d="M113.5,132.7c-1,0-1.9-0.5-2.5-1.3l-20.8-30.2c-1-1.4-0.6-3.3,0.8-4.3l30.2-20.8c1.4-1,3.3-0.6,4.3,0.8
	c1,1.4,0.6,3.3-0.8,4.3l-27.7,19l19.1,27.7c1,1.4,0.6,3.3-0.8,4.3C114.7,132.5,114.1,132.7,113.5,132.7"/>
<path d="M105.1,205.3c-1.7,0-3.1-1.4-3.1-3.1c0-1.7,1.4-3.1,3.1-3.1c5.8,0,8.5-2.9,11.9-6.4c3.7-3.9,8-8.3,16.3-8.3
	c8.4,0,12.6,4.4,16.4,8.3c3.4,3.6,6.1,6.4,11.9,6.4c5.7,0,8.5-2.9,11.9-6.4c3.7-3.9,8-8.3,16.3-8.3c1.7,0,3.1,1.4,3.1,3.1
	c0,1.7-1.4,3.1-3.1,3.1c-5.8,0-8.5,2.9-11.9,6.4c-3.7,3.9-8,8.3-16.3,8.3c-8.4,0-12.6-4.4-16.4-8.3c-3.4-3.6-6.1-6.4-11.9-6.4
	c-5.7,0-8.5,2.9-11.9,6.4C117.7,200.9,113.5,205.3,105.1,205.3C105.1,205.3,105.1,205.3,105.1,205.3"/>
<path d="M161.6,250.8c-8.4,0-12.6-4.4-16.4-8.3c-3.4-3.6-6.1-6.4-11.9-6.4c-5.7,0-8.5,2.9-11.9,6.4c-3.7,3.9-8,8.3-16.3,8.3
	c-1.7,0-3.1-1.4-3.1-3.1c0-1.7,1.4-3.1,3.1-3.1c5.8,0,8.5-2.9,11.9-6.4c3.7-3.9,8-8.3,16.3-8.3c8.4,0,12.6,4.4,16.4,8.3
	c3.4,3.6,6.1,6.4,11.9,6.4c1.7,0,3.1,1.4,3.1,3.1C164.7,249.4,163.3,250.8,161.6,250.8"/>
<path d="M388.1,205.3c-8.4,0-12.6-4.4-16.4-8.3c-3.4-3.6-6.1-6.4-11.9-6.4c-5.7,0-8.5,2.9-11.9,6.4c-3.7,3.9-8,8.3-16.3,8.3
	c-8.4,0-12.6-4.4-16.4-8.3c-3.4-3.6-6.1-6.4-11.9-6.4c-1.7,0-3.1-1.4-3.1-3.1c0-1.7,1.4-3.1,3.1-3.1c8.4,0,12.6,4.4,16.4,8.3
	c3.4,3.6,6.1,6.4,11.9,6.4c5.7,0,8.5-2.9,11.9-6.4c3.7-3.9,8-8.3,16.3-8.3c8.4,0,12.6,4.4,16.4,8.3c3.4,3.6,6.1,6.4,11.9,6.4
	c1.7,0,3.1,1.4,3.1,3.1C391.2,203.9,389.8,205.3,388.1,205.3"/>
<path d="M388.1,250.8c-8.4,0-12.6-4.4-16.4-8.3c-3.4-3.6-6.1-6.4-11.9-6.4c-5.7,0-8.5,2.9-11.9,6.4c-3.7,3.9-8,8.3-16.3,8.3
	c-1.7,0-3.1-1.4-3.1-3.1c0-1.7,1.4-3.1,3.1-3.1c5.8,0,8.5-2.9,11.9-6.4c3.7-3.9,8-8.3,16.3-8.3c8.4,0,12.6,4.4,16.4,8.3
	c3.4,3.6,6.1,6.4,11.9,6.4c1.7,0,3.1,1.4,3.1,3.1C391.2,249.4,389.8,250.8,388.1,250.8"/>
<path class="st1" d="M326.7,285.1c-2.5-3.4-13.1-1.3-15.8-0.7c-7.5,1.4-14.7,4.4-20.8,8.8c1-0.7,1.9-3.4,2.7-4.5
	c1-1.5,2.2-3,3.4-4.4c1.9-2.2,3.7-4.8,6.4-6.2c6.8-3.5,14.3-6,21.9-6.6c8.8-0.7,17.9,1.1,25.3,6c1.5,1,2.9,2.2,3.4,3.9
	c1.2,4.1-5.2,6.5-8,7.7c-1.7,0.7-3.9,2-5.8,2.3c-0.8,0.1-1.5-0.6-1.8-0.6c-10.5,2.2-12.6,18.5-7.9,26.1c2.8,4.6,7.5,7.7,12.5,9.6
	c3.2,1.2,6.6,1.5,10,1.5c1.8,0,3.6-0.1,5.3-0.3c2.2-0.2,6.3-1.6,5.4,1.9c-2.1,8.4-11,11.1-18.8,11c-16.1-0.3-30.5-12.1-30.2-28.9
	c0.1-6.9,3-13.4,8.1-18.1c1.8-1.7,5.2-3.6,5.2-6.5C327.2,286.2,327,285.6,326.7,285.1"/>
<path d="M155.7,363.5H87.3c-1.7,0-3.1-1.2-3.1-2.8c0-1.5,1.4-2.8,3.1-2.8h68.4c25.9,0,48.1-17.2,51.7-40.1c1.7-11-1.8-22.1-9.8-30.4
	c-7.6-8-18.2-12.5-29.7-12.7c-9.5-0.2-18.8,2.6-26.2,7.8c-0.3,0.2-0.4,0.5-0.3,0.8c0.2,0.4,0.6,0.4,0.7,0.4c0.9-0.1,1.7-0.1,2.6-0.1
	c12.5,0.4,22.7,9.4,23.3,20.5c0.3,5.9-2.1,11.6-6.6,15.9c-4.6,4.3-10.8,6.7-17.4,6.7H127c-1.7,0-3.1-1.2-3.1-2.8
	c0-1.5,1.4-2.8,3.1-2.8h16.9c4.9,0,9.5-1.8,12.9-4.9c3.4-3.2,5.2-7.4,4.9-11.8c-0.4-8.3-8-15-17.3-15.2c-0.7,0-1.3,0-2,0
	c-3.1,0.2-5.8-1.3-6.9-3.9c-1.1-2.6-0.2-5.4,2.2-7.1c8.5-6,19.3-9.2,30.2-9c13.4,0.3,25.5,5.5,34.3,14.7
	c9.1,9.6,13.2,22.2,11.2,34.8C209.4,344.3,184.6,363.5,155.7,363.5"/>
<rect x="40" y="421.6" width="14.1" height="14.1"/>
<rect x="64.3" y="396.2" width="14.1" height="14.1"/>
<rect x="102.9" y="405.1" width="14.1" height="14.1"/>
<rect x="134.7" y="424.8" width="14.1" height="14.1"/>
<rect x="153" y="398.8" width="14.1" height="14.1"/>
<rect x="203.1" y="409.6" width="14.1" height="14.1"/>
<rect x="279.9" y="421.2" width="12.3" height="12.3"/>
<rect x="250.4" y="399.1" width="12.3" height="12.3"/>
<rect x="351.4" y="419.1" width="12.3" height="12.3"/>
<rect x="309.5" y="400" width="12.3" height="12.3"/>
<rect x="391.5" y="400.4" width="12.3" height="12.3"/>
<rect x="410.1" y="424.1" width="12.3" height="12.3"/>
<rect x="445" y="416" width="12.3" height="12.3"/>
<path d="M406.3,363.5H338c-28.9,0-53.8-19.3-57.8-44.8c-2-12.5,2.1-25.2,11.2-34.8c8.8-9.2,21-14.4,34.3-14.7
	c10.9-0.2,21.6,3,30.2,9c2.4,1.7,3.3,4.6,2.2,7.1c-1.1,2.6-3.8,4.1-6.9,3.9c-0.6,0-1.3-0.1-2,0c-9.3,0.3-16.9,7-17.3,15.2
	c-0.2,4.4,1.5,8.6,4.9,11.8c3.4,3.2,8,4.9,12.9,4.9h16.9c1.7,0,3.1,1.2,3.1,2.8c0,1.5-1.4,2.8-3.1,2.8h-16.9
	c-6.6,0-12.8-2.4-17.4-6.7c-4.6-4.3-6.9-9.9-6.6-15.9c0.6-11.1,10.8-20.1,23.3-20.5c0.9,0,1.7,0,2.6,0.1c0.1,0,0.5,0,0.7-0.4
	c0.1-0.3,0.1-0.6-0.3-0.8c-7.4-5.2-16.7-8-26.2-7.8c-11.6,0.2-22.1,4.7-29.7,12.7c-8,8.4-11.5,19.5-9.8,30.4
	c3.6,22.8,25.8,40.1,51.7,40.1h68.4c1.7,0,3.1,1.2,3.1,2.8C409.4,362.3,408,363.5,406.3,363.5"/>
</svg>
