<svg xmlns="http://www.w3.org/2000/svg" xmlns:xlink="http://www.w3.org/1999/xlink" width="600" zoomAndPan="magnify" viewBox="0 0 450 449.999984" height="600" preserveAspectRatio="xMidYMid meet" version="1.0"><defs><clipPath id="id1"><path d="M 60.621094 267.136719 L 169.371094 267.136719 L 169.371094 352.636719 L 60.621094 352.636719 Z M 60.621094 267.136719 " clip-rule="nonzero"/></clipPath><clipPath id="id2"><path d="M 81.976562 36.574219 L 367.726562 36.574219 L 367.726562 188.074219 L 81.976562 188.074219 Z M 81.976562 36.574219 " clip-rule="nonzero"/></clipPath><clipPath id="id3"><path d="M 254 355 L 324 355 L 324 360.703125 L 254 360.703125 Z M 254 355 " clip-rule="nonzero"/></clipPath><clipPath id="id4"><path d="M 344.210938 267.386719 L 380.617188 267.386719 L 380.617188 360.703125 L 344.210938 360.703125 Z M 344.210938 267.386719 " clip-rule="nonzero"/></clipPath><clipPath id="id5"><path d="M 247.117188 267.136719 L 332 267.136719 L 332 334 L 247.117188 334 Z M 247.117188 267.136719 " clip-rule="nonzero"/></clipPath></defs><g clip-path="url(#id1)"><path fill="#31899d" d="M 114.828125 352.605469 C 101.359375 352.605469 87.890625 352.613281 74.425781 352.601562 C 65.816406 352.597656 60.632812 347.417969 60.628906 338.835938 C 60.621094 323.863281 60.617188 308.890625 60.625 293.917969 C 60.625 285.355469 65.859375 280.164062 74.46875 280.160156 C 83.765625 280.15625 93.0625 280.132812 102.355469 280.195312 C 103.730469 280.207031 104.332031 279.773438 104.929688 278.527344 C 108.316406 271.449219 113.960938 267.519531 121.875 267.355469 C 126.761719 267.257812 131.726562 267.148438 136.53125 267.867188 C 142.632812 268.773438 146.988281 272.621094 149.5625 278.1875 C 150.320312 279.824219 151.183594 280.363281 152.84375 280.183594 C 153.929688 280.066406 155.039062 280.15625 156.136719 280.164062 C 163.65625 280.214844 169.191406 285.386719 169.246094 292.859375 C 169.367188 308.632812 169.371094 324.410156 169.234375 340.183594 C 169.171875 347.40625 163.671875 352.5625 156.328125 352.589844 C 142.496094 352.640625 128.660156 352.605469 114.828125 352.605469 Z M 127.519531 287.023438 C 111.367188 286.894531 97.972656 299.980469 97.859375 316 C 97.742188 332.382812 110.863281 345.75 127.152344 345.84375 C 143.390625 345.941406 156.671875 332.824219 156.78125 316.585938 C 156.890625 300.324219 143.851562 287.148438 127.519531 287.023438 Z M 77.371094 288.421875 C 73.113281 288.433594 69.667969 291.902344 69.734375 296.105469 C 69.796875 300.230469 73.207031 303.636719 77.3125 303.683594 C 81.515625 303.726562 85.027344 300.265625 85.050781 296.050781 C 85.074219 291.820312 81.640625 288.40625 77.371094 288.421875 Z M 77.371094 288.421875 " fill-opacity="1" fill-rule="nonzero"/></g><path fill="#31899d" d="M 127.265625 295.425781 C 138.964844 295.398438 148.355469 304.730469 148.363281 316.382812 C 148.375 327.992188 138.859375 337.503906 127.300781 337.441406 C 115.773438 337.378906 106.34375 328.011719 106.253906 316.53125 C 106.164062 304.980469 115.648438 295.453125 127.265625 295.425781 Z M 127.265625 295.425781 " fill-opacity="1" fill-rule="nonzero"/><g clip-path="url(#id2)"><path fill="#31899d" d="M 315.4375 83.515625 C 310.695312 83.515625 306.109375 84.15625 301.746094 85.335938 C 292 57.003906 265.117188 36.632812 233.457031 36.632812 C 203.417969 36.632812 177.667969 54.964844 166.789062 81.042969 C 162.90625 79.8125 158.777344 79.144531 154.492188 79.144531 C 132.046875 79.144531 113.851562 97.328125 113.851562 119.757812 C 113.851562 119.785156 113.851562 119.808594 113.851562 119.835938 C 96.054688 120.992188 81.976562 135.773438 81.976562 153.851562 C 81.976562 172.683594 97.253906 187.949219 116.097656 187.949219 C 116.621094 187.949219 117.140625 187.933594 117.65625 187.910156 L 117.660156 187.949219 L 117.921875 187.902344 C 118.160156 187.886719 118.390625 187.863281 118.621094 187.847656 L 311.421875 187.847656 C 312.75 187.949219 314.085938 188.015625 315.4375 188.015625 C 344.316406 188.015625 367.726562 164.621094 367.726562 135.765625 C 367.726562 106.910156 344.316406 83.515625 315.4375 83.515625 Z M 315.4375 83.515625 " fill-opacity="1" fill-rule="nonzero"/></g><path fill="#31899d" d="M 278.230469 335.332031 L 300.144531 335.332031 L 300.144531 353.261719 L 278.230469 353.261719 L 278.230469 335.332031 " fill-opacity="1" fill-rule="nonzero"/><g clip-path="url(#id3)"><path fill="#31899d" d="M 276.476562 355.011719 L 254.574219 355.011719 L 254.574219 360.703125 L 323.8125 360.703125 L 323.8125 355.011719 L 276.476562 355.011719 " fill-opacity="1" fill-rule="nonzero"/></g><g clip-path="url(#id4)"><path fill="#31899d" d="M 372.523438 282.785156 L 352.433594 282.785156 L 352.433594 278.054688 L 372.523438 278.054688 Z M 372.523438 291.535156 L 352.433594 291.535156 L 352.433594 286.792969 L 372.523438 286.792969 Z M 358.789062 328.046875 C 358.789062 325.988281 360.46875 324.308594 362.519531 324.308594 C 364.59375 324.308594 366.265625 325.988281 366.265625 328.046875 C 366.265625 330.09375 364.59375 331.773438 362.519531 331.773438 C 360.46875 331.773438 358.800781 330.128906 358.789062 328.070312 C 358.789062 328.058594 358.789062 328.046875 358.789062 328.046875 Z M 362.507812 349.324219 C 358.394531 349.324219 355.066406 346 355.066406 341.894531 C 355.066406 337.792969 358.394531 334.457031 362.507812 334.457031 C 366.632812 334.457031 369.964844 337.792969 369.964844 341.894531 C 369.964844 346 366.632812 349.324219 362.507812 349.324219 Z M 344.410156 267.398438 L 344.410156 360.703125 L 380.617188 360.703125 L 380.617188 267.398438 L 344.410156 267.398438 " fill-opacity="1" fill-rule="nonzero"/></g><g clip-path="url(#id5)"><path fill="#31899d" d="M 253.460938 270.898438 L 324.890625 270.898438 L 324.890625 320.027344 L 253.460938 320.027344 Z M 290.070312 330.09375 C 288.457031 330.09375 287.15625 328.792969 287.15625 327.183594 C 287.15625 325.574219 288.457031 324.285156 290.070312 324.285156 C 291.671875 324.285156 292.972656 325.574219 292.972656 327.183594 C 292.996094 328.792969 291.730469 330.105469 290.117188 330.140625 C 290.09375 330.140625 290.082031 330.140625 290.070312 330.140625 Z M 247.117188 333.582031 L 331.253906 333.582031 L 331.253906 267.398438 L 247.117188 267.398438 L 247.117188 333.582031 " fill-opacity="1" fill-rule="nonzero"/></g><path stroke-linecap="round" transform="matrix(0.000000000000000733, 11.96661, -11.999999, 0.000000000000000735, 126.485667, 193.412095)" fill="none" stroke-linejoin="miter" d="M 0.749972 0.000107675 L 4.764724 0.000107675 " stroke="#31899d" stroke-width="1" stroke-opacity="1" stroke-miterlimit="4"/><path stroke-linecap="round" transform="matrix(0.000000000000000733, 11.96661, -11.999999, 0.000000000000000735, 126.485667, 193.412095)" fill="none" stroke-linejoin="round" d="M 2.499959 -1.499892 L 0.499927 0.000107675 L 2.499959 1.500108 " stroke="#31899d" stroke-width="1" stroke-opacity="1" stroke-miterlimit="4"/><path stroke-linecap="round" transform="matrix(0.000000000000000733, -11.96661, 11.999999, 0.000000000000000735, 303.461118, 256.58787)" fill="none" stroke-linejoin="miter" d="M 0.749969 -0.0000150511 L 4.764721 -0.0000150511 " stroke="#31899d" stroke-width="1" stroke-opacity="1" stroke-miterlimit="4"/><path stroke-linecap="round" transform="matrix(0.000000000000000733, -11.96661, 11.999999, 0.000000000000000735, 303.461118, 256.58787)" fill="none" stroke-linejoin="round" d="M 2.499956 -1.500015 L 0.499925 -0.0000150511 L 2.499956 1.499985 " stroke="#31899d" stroke-width="1" stroke-opacity="1" stroke-miterlimit="4"/></svg>