<svg width="331" height="56" viewBox="0 0 331 56" fill="none" xmlns="http://www.w3.org/2000/svg">
<path d="M55.6073 35.9366L56.3791 36.7076C59.247 39.2421 62.7771 41.2268 66.8598 41.2268C68.6249 41.2268 71.6047 40.4557 71.9358 38.2497C72.2669 36.0461 69.9492 35.8248 68.4057 35.494L64.8756 34.8324C58.0345 33.6187 52.849 29.4304 54.0638 21.7153C55.9384 10.0308 67.6339 3.41748 78.3362 3.41748C83.9625 3.41748 88.9289 4.74061 93.3403 7.71529L86.4993 20.3922C83.7409 18.298 80.5419 16.6441 76.6807 16.6441C75.1372 16.6441 72.71 17.1962 72.3789 19.2903C72.0478 21.1632 74.2535 21.3845 75.5779 21.7153L79.4391 22.5982C86.7208 24.2521 91.5753 28.331 90.2509 36.7076C88.3763 48.5016 76.6807 54.3439 66.088 54.3439C59.9092 54.3439 52.9585 52.69 47.7729 49.8248L55.6073 35.9366Z" fill="#171717"/>
<path d="M112.868 18.8499L110.11 36.8169C109.779 38.8016 109.557 41.0052 112.315 41.0052C115.074 41.0052 115.514 38.8016 115.845 36.8169L118.713 18.8499H135.483L132.393 38.4708C130.628 49.4937 120.366 54.3437 110.217 54.3437C100.177 54.3437 91.3491 49.3843 93.1165 38.4708L96.206 18.8499H112.868Z" fill="#171717"/>
<path d="M166.048 35.1631C164.392 34.0613 163.289 33.2902 161.193 33.2902C156.78 33.2902 154.133 35.9365 153.471 40.2343L151.375 53.5728H134.494L140.01 18.8524H156.891L155.789 23.481H156.229C159.981 18.8524 163.18 17.9695 168.918 18.079L166.048 35.1631Z" fill="#171717"/>
<path d="M176.75 15.7634C178.406 5.62332 183.811 0 194.294 0C196.83 0 199.148 0.440253 201.575 0.771036L199.479 14.2189C198.707 13.8882 198.045 13.6668 197.274 13.6668C194.406 13.6668 193.412 15.9823 192.972 18.2954L192.75 19.6186L198.598 18.8475L196.502 32.4049L191.095 31.9646L187.674 53.5679H170.793L174.214 31.9646L169.581 32.4049L171.677 18.8475L176.2 19.3996L176.75 15.7634Z" fill="#171717"/>
<path d="M206.208 0.552002H223.089L214.702 53.5726H197.823L206.208 0.552002Z" fill="#171717"/>
<path d="M226.509 18.8499H243.39L237.874 53.5703H220.993L226.509 18.8499ZM245.927 8.15774C245.044 13.8905 240.189 16.3155 235.335 16.3155C230.48 16.3155 226.397 13.7811 227.281 8.15774C228.053 3.08652 232.576 0 237.874 0C243.279 0.00237974 246.699 3.0889 245.927 8.15774Z" fill="#171717"/>
<path d="M264.243 24.4708H264.683C268.545 20.7227 271.412 18.0789 276.929 18.0789C285.535 18.0789 287.963 24.5827 286.748 32.1883L283.327 53.5727H266.446L269.095 36.598C269.426 34.6133 269.867 31.6386 266.999 31.6386C264.131 31.6386 263.688 34.5038 263.357 36.598L260.708 53.5727H243.827L249.343 18.8523H265.893L264.243 24.4708Z" fill="#171717"/>
<path d="M307.049 31.8578C307.381 29.4329 309.036 27.3387 311.573 27.3387C314 27.3387 315.324 29.5423 314.993 31.8578H307.049ZM330.441 39.0208C333.308 26.0132 324.814 17.9673 312.457 17.9673C301.423 17.9673 291.383 25.1327 289.509 36.7053C287.634 48.7206 296.681 54.3416 307.714 54.3416C315.658 54.3416 325.698 50.484 329.228 42.1074H312.79C312.237 43.7613 310.694 44.9726 308.929 44.9726C305.399 44.9726 305.399 41.886 305.839 39.0208H330.441V39.0208Z" fill="#171717"/>
<path d="M40.8391 27.9977C37.9546 19.8423 21.0186 0.00244141 21.0186 0.00244141C21.0186 0.00244141 4.08034 19.8447 1.19575 28.0024C0.421609 30.1918 0 32.5477 0 35.0013C0 46.5977 9.41122 56.0001 21.0186 56.0001C32.6261 56.0001 42.0373 46.5977 42.0373 35.0013C42.0373 32.543 41.6157 30.187 40.8391 27.9977ZM10.5093 38.4971C8.57515 38.4971 7.00542 36.9312 7.00542 34.9965C7.00542 27.2647 13.2796 20.9989 21.0163 20.9989C22.2263 20.9989 23.4006 21.1536 24.5202 21.4391C18.4771 22.9931 14.0108 28.476 14.0108 34.9965C14.0132 36.9312 12.4459 38.4971 10.5093 38.4971ZM21.0186 48.9965C19.8086 48.9965 18.6343 48.8442 17.5147 48.5562C23.5578 47.0023 28.0241 41.5217 28.0241 34.9989C28.0241 33.0665 29.5914 31.4983 31.528 31.4983C33.4621 31.4983 35.0319 33.0641 35.0319 34.9989C35.0319 42.7306 28.7577 48.9965 21.0186 48.9965Z" fill="#171717"/>
</svg>
