<svg xmlns="http://www.w3.org/2000/svg" xmlns:xlink="http://www.w3.org/1999/xlink" width="600" zoomAndPan="magnify" viewBox="0 0 450 449.999984" height="600" preserveAspectRatio="xMidYMid meet" version="1.0"><defs><clipPath id="id1"><path d="M 65.777344 89 L 384.527344 89 L 384.527344 339.933594 L 65.777344 339.933594 Z M 65.777344 89 " clip-rule="nonzero"/></clipPath></defs><g clip-path="url(#id1)"><path fill="#31899d" d="M 224.65625 339.847656 C 185.183594 339.851562 145.707031 339.871094 106.234375 339.839844 C 81.007812 339.824219 65.8125 324.601562 65.800781 299.378906 C 65.777344 255.382812 65.769531 211.382812 65.785156 167.386719 C 65.792969 142.21875 81.125 126.960938 106.367188 126.953125 C 133.609375 126.945312 160.859375 126.863281 188.105469 127.054688 C 192.132812 127.085938 193.898438 125.8125 195.648438 122.148438 C 205.574219 101.347656 222.117188 89.800781 245.320312 89.324219 C 259.640625 89.027344 274.1875 88.714844 288.277344 90.820312 C 306.152344 93.488281 318.921875 104.789062 326.472656 121.152344 C 328.691406 125.964844 331.214844 127.542969 336.089844 127.019531 C 339.269531 126.675781 342.515625 126.933594 345.734375 126.957031 C 367.777344 127.113281 384 142.3125 384.164062 164.269531 C 384.511719 210.628906 384.53125 256.988281 384.132812 303.34375 C 383.949219 324.570312 367.816406 339.71875 346.296875 339.800781 C 305.753906 339.953125 265.207031 339.847656 224.65625 339.847656 Z M 261.863281 147.117188 C 214.519531 146.746094 175.257812 185.199219 174.925781 232.273438 C 174.582031 280.421875 213.035156 319.699219 260.785156 319.980469 C 308.375 320.261719 347.3125 281.710938 347.632812 234 C 347.949219 186.210938 309.730469 147.492188 261.863281 147.117188 Z M 114.875 151.226562 C 102.394531 151.269531 92.292969 161.457031 92.484375 173.8125 C 92.679688 185.933594 102.664062 195.941406 114.707031 196.074219 C 127.023438 196.210938 137.316406 186.035156 137.382812 173.652344 C 137.453125 161.21875 127.390625 151.1875 114.875 151.226562 Z M 114.875 151.226562 " fill-opacity="1" fill-rule="nonzero"/></g><path fill="#31899d" d="M 261.109375 171.8125 C 295.40625 171.734375 322.9375 199.152344 322.960938 233.402344 C 322.984375 267.511719 295.09375 295.46875 261.214844 295.285156 C 227.429688 295.105469 199.792969 267.574219 199.527344 233.828125 C 199.261719 199.890625 227.066406 171.886719 261.109375 171.8125 Z M 261.109375 171.8125 " fill-opacity="1" fill-rule="nonzero"/></svg>